<svg width="26" height="16" viewBox="0 0 26 16" fill="none" xmlns="http://www.w3.org/2000/svg">
<path d="M24 0H2C0.89543 0 0 0.89543 0 2V14C0 15.1046 0.89543 16 2 16H24C25.1046 16 26 15.1046 26 14V2C26 0.89543 25.1046 0 24 0Z" fill="#007ECD"/>
<path d="M16.5999 8.86009H18.5399V9.32009H17.1899V9.72009H18.4999V10.1301H17.1899V10.5501H18.5399V11.0001H16.5999V8.86009ZM22.2699 9.70009C22.9999 9.70009 23.0599 10.0601 23.0599 10.4001C23.0536 10.4882 23.0299 10.5741 22.9903 10.653C22.9506 10.7319 22.8958 10.8022 22.8289 10.8598C22.7619 10.9174 22.6843 10.9612 22.6004 10.9887C22.5165 11.0163 22.428 11.0269 22.3399 11.0201H21.0599V10.5601H22.0599C22.2299 10.5601 22.4699 10.5601 22.4699 10.3501C22.4699 10.1401 22.4699 10.1901 22.2499 10.1701H21.8499C21.1899 10.1701 21.0399 9.86009 21.0399 9.51009C21.0426 9.34209 21.1112 9.18186 21.2309 9.064C21.3506 8.94613 21.5119 8.88007 21.6799 8.88009H22.9999V9.35009H21.9999C21.7899 9.35009 21.5699 9.35009 21.5699 9.53009C21.5699 9.71009 21.6799 9.69009 21.8199 9.70009H22.2299H22.2699ZM20.0499 9.70009C20.7699 9.70009 20.8399 10.0601 20.8399 10.4001C20.8246 10.5788 20.7393 10.7443 20.6026 10.8604C20.4659 10.9765 20.2888 11.0339 20.1099 11.0201H18.8399V10.5601H19.8399C20.0099 10.5601 20.2499 10.5601 20.2499 10.3501C20.2499 10.1401 20.2499 10.1901 20.0399 10.1701H19.6299C18.9699 10.1701 18.8199 9.86009 18.8199 9.51009C18.8226 9.34209 18.8912 9.18186 19.0109 9.064C19.1306 8.94613 19.2919 8.88007 19.4599 8.88009H20.7699V9.35009H19.8599C19.6499 9.35009 19.4299 9.35009 19.4299 9.53009C19.4299 9.71009 19.5399 9.69009 19.6799 9.70009H20.0899H20.0499ZM13.0499 8.86009H10.9999L10.3299 9.53009L9.66994 8.86009H7.28994V11.0001H9.53994L10.2499 10.2901L10.9999 11.0001H12.1299V10.2701H12.9299C13.1141 10.3091 13.3062 10.2743 13.4651 10.1734C13.6239 10.0725 13.737 9.91334 13.7799 9.73009C13.7902 9.65377 13.7902 9.57641 13.7799 9.50009C13.7854 9.332 13.7244 9.16852 13.6103 9.04501C13.4961 8.9215 13.3379 8.84789 13.1699 8.84009L13.0499 8.86009ZM9.24994 10.5501H7.86994V10.1301H9.16994V9.72009H7.86994V9.32009H9.30994L9.87994 9.90009L9.24994 10.5501ZM11.5199 10.8001L10.6699 9.91009L11.5199 9.07009V10.8001ZM12.8499 9.80009H12.1099V9.32009H12.8499C12.9188 9.30504 12.9909 9.31753 13.0507 9.35491C13.1105 9.39228 13.1533 9.45157 13.1699 9.52009C13.185 9.58899 13.1725 9.66103 13.1351 9.72083C13.0978 9.78063 13.0385 9.82344 12.9699 9.84009L12.8499 9.80009ZM15.9099 9.99009C16.0356 9.95373 16.1449 9.87525 16.2196 9.76782C16.2943 9.66039 16.3297 9.53055 16.3199 9.40009C16.3096 9.23652 16.236 9.0834 16.1146 8.97325C15.9933 8.86309 15.8337 8.80456 15.6699 8.81009H14.0699V11.0001H14.6599V10.2401H15.4399C15.5239 10.2502 15.6008 10.2921 15.6548 10.3572C15.7088 10.4223 15.7357 10.5057 15.7299 10.5901V10.9801H16.2999V10.5401C16.3309 10.4287 16.3168 10.3096 16.2606 10.2086C16.2045 10.1075 16.1109 10.0327 15.9999 10.0001L15.9099 9.99009ZM15.3999 9.77009H14.6599V9.32009H15.3999C15.4347 9.31278 15.4707 9.31242 15.5056 9.31903C15.5405 9.32563 15.5738 9.33908 15.6036 9.35859C15.6333 9.37811 15.6589 9.4033 15.6789 9.43273C15.6988 9.46216 15.7128 9.49525 15.7199 9.53009C15.7199 9.53009 15.6299 9.77009 15.3899 9.77009H15.3999ZM15.1299 8.10009V6.00009H14.5299V8.14009L15.1299 8.10009ZM9.61994 6.00009H11.6199V6.46009H10.2199V6.86009H11.5399V7.27009H10.2199V7.69009H11.5799V8.15009H9.57994L9.61994 6.00009ZM13.7899 7.17009C13.9164 7.13175 14.026 7.05138 14.1006 6.94226C14.1751 6.83315 14.2102 6.70185 14.1999 6.57009C14.1871 6.40916 14.1121 6.25956 13.9907 6.15312C13.8693 6.04667 13.7112 5.99177 13.5499 6.00009H11.9299V8.14009H12.5299V7.38009H13.3099C13.352 7.38264 13.3931 7.39346 13.431 7.41194C13.4688 7.43042 13.5027 7.4562 13.5306 7.48779C13.5584 7.51938 13.5798 7.55616 13.5934 7.59602C13.607 7.63589 13.6127 7.67805 13.6099 7.72009V8.14009H14.1899V7.70009C14.2051 7.64559 14.2094 7.58863 14.2026 7.53247C14.1957 7.47632 14.1778 7.42207 14.1499 7.37283C14.1221 7.32359 14.0848 7.28034 14.0401 7.24555C13.9955 7.21076 13.9445 7.18512 13.8899 7.17009H13.7899ZM13.2799 6.94009H12.5299V6.45009H13.2799C13.3147 6.44278 13.3507 6.44242 13.3856 6.44903C13.4205 6.45563 13.4538 6.46908 13.4836 6.48859C13.5133 6.50811 13.5389 6.5333 13.5589 6.56273C13.5788 6.59216 13.5928 6.62525 13.5999 6.66009C13.5999 6.66009 13.5099 6.91009 13.2599 6.91009L13.2799 6.94009ZM8.24994 6.00009L7.50994 7.43009L6.77994 6.00009H5.83994V8.06009L4.79994 6.00009H3.99994L2.93994 8.14009H3.56994L3.80994 7.66009H4.99994L5.22994 8.14009H6.43994V6.55009L7.23994 8.14009H7.77994L8.59994 6.57009V8.14009H9.18994V6.00009H8.24994ZM3.99994 7.19009L4.35994 6.44009L4.72994 7.19009H3.99994ZM21.2799 6.00009V7.47009L20.2799 6.00009H19.3899V8.00009L18.3899 6.00009H17.5999L16.7799 7.66009H16.3899C16.3301 7.65407 16.2721 7.63583 16.2195 7.6065C16.167 7.57717 16.121 7.53738 16.0845 7.48958C16.0479 7.44178 16.0215 7.38699 16.007 7.3286C15.9925 7.2702 15.9901 7.20945 15.9999 7.15009V7.00009C15.9999 6.50009 16.3099 6.46009 16.7099 6.46009H17.0799V6.00009H16.2999C16.159 6.02421 16.0243 6.07606 15.9036 6.15264C15.7829 6.22922 15.6785 6.32901 15.5967 6.44622C15.5148 6.56343 15.457 6.69573 15.4267 6.83544C15.3964 6.97515 15.3941 7.11949 15.4199 7.26009C15.4624 7.48877 15.5763 7.69809 15.7452 7.858C15.9141 8.01791 16.1293 8.12017 16.3599 8.15009H17.1499L17.3799 7.67009H18.5799L18.8099 8.15009H19.9999V6.57009L21.0799 8.14009H21.8899V6.00009H21.2799ZM17.6099 7.20009L17.9999 6.44009L18.3699 7.19009L17.6099 7.20009Z" fill="white"/>
</svg>
