<svg width="24" height="24" viewBox="0 0 24 24" fill="none" xmlns="http://www.w3.org/2000/svg">
<path d="M8.46026 12.71L14.1203 18.36C14.2132 18.4537 14.3238 18.5281 14.4457 18.5789C14.5675 18.6296 14.6983 18.6558 14.8303 18.6558C14.9623 18.6558 15.093 18.6296 15.2148 18.5789C15.3367 18.5281 15.4473 18.4537 15.5403 18.36C15.7265 18.1726 15.8311 17.9191 15.8311 17.655C15.8311 17.3908 15.7265 17.1373 15.5403 16.95L10.5903 11.95L15.5403 6.99996C15.7265 6.8126 15.8311 6.55915 15.8311 6.29496C15.8311 6.03078 15.7265 5.77733 15.5403 5.58996C15.4476 5.49548 15.3372 5.42031 15.2153 5.36881C15.0935 5.31731 14.9626 5.29051 14.8303 5.28996C14.698 5.29051 14.5671 5.31731 14.4452 5.36881C14.3233 5.42031 14.2129 5.49548 14.1203 5.58996L8.46026 11.24C8.35876 11.3336 8.27775 11.4473 8.22234 11.5738C8.16693 11.7003 8.13833 11.8369 8.13833 11.975C8.13833 12.1131 8.16693 12.2497 8.22234 12.3762C8.27775 12.5027 8.35876 12.6163 8.46026 12.71Z" fill="#1D1F2A"/>
</svg>
