<svg width="64" height="64" viewBox="0 0 64 64" fill="none" xmlns="http://www.w3.org/2000/svg">
<path d="M39.253 23.4399L27.813 34.9066L23.413 30.5066C23.174 30.2274 22.8798 30.0007 22.5489 29.8407C22.2181 29.6806 21.8577 29.5906 21.4905 29.5765C21.1232 29.5623 20.757 29.6242 20.4148 29.7582C20.0726 29.8923 19.7618 30.0956 19.502 30.3555C19.2421 30.6154 19.0387 30.9262 18.9047 31.2684C18.7706 31.6106 18.7087 31.9768 18.7229 32.3441C18.7371 32.7113 18.827 33.0717 18.9871 33.4025C19.1471 33.7333 19.3739 34.0275 19.653 34.2666L25.9197 40.5599C26.1689 40.8071 26.4644 41.0026 26.7893 41.1353C27.1142 41.268 27.4621 41.3353 27.813 41.3333C28.5126 41.3303 29.183 41.0526 29.6797 40.5599L43.013 27.2266C43.263 26.9787 43.4613 26.6837 43.5967 26.3588C43.7321 26.0338 43.8018 25.6853 43.8018 25.3333C43.8018 24.9812 43.7321 24.6327 43.5967 24.3077C43.4613 23.9828 43.263 23.6878 43.013 23.4399C42.5134 22.9433 41.8375 22.6645 41.133 22.6645C40.4285 22.6645 39.7527 22.9433 39.253 23.4399ZM31.9997 5.33325C26.7255 5.33325 21.5698 6.89722 17.1845 9.8274C12.7992 12.7576 9.38124 16.9223 7.3629 21.795C5.34456 26.6677 4.81647 32.0295 5.84541 37.2023C6.87435 42.3752 9.4141 47.1267 13.1435 50.8561C16.8729 54.5855 21.6245 57.1253 26.7973 58.1542C31.9701 59.1831 37.3319 58.655 42.2046 56.6367C47.0773 54.6184 51.242 51.2004 54.1722 46.8151C57.1024 42.4298 58.6663 37.2741 58.6663 31.9999C58.6663 28.498 57.9766 25.0304 56.6365 21.795C55.2963 18.5597 53.3321 15.62 50.8559 13.1437C48.3796 10.6675 45.4399 8.70326 42.2046 7.36313C38.9692 6.02301 35.5016 5.33325 31.9997 5.33325ZM31.9997 53.3333C27.7804 53.3333 23.6558 52.0821 20.1475 49.7379C16.6393 47.3938 13.9049 44.062 12.2903 40.1638C10.6756 36.2657 10.2531 31.9763 11.0763 27.838C11.8994 23.6997 13.9312 19.8985 16.9147 16.915C19.8983 13.9315 23.6995 11.8997 27.8378 11.0765C31.976 10.2533 36.2654 10.6758 40.1636 12.2905C44.0618 13.9052 47.3936 16.6395 49.7377 20.1478C52.0818 23.656 53.333 27.7806 53.333 31.9999C53.333 37.6579 51.0854 43.0841 47.0846 47.0849C43.0839 51.0856 37.6576 53.3333 31.9997 53.3333Z" fill="white"/>
</svg>
