<svg width="25" height="24" viewBox="0 0 25 24" fill="none" xmlns="http://www.w3.org/2000/svg">
<path d="M21.1729 8.94C21.1624 8.84813 21.1423 8.75763 21.1129 8.67V8.58C21.0648 8.47718 21.0006 8.38267 20.9229 8.3L14.9229 2.3C14.8402 2.22222 14.7457 2.15808 14.6429 2.11C14.613 2.10576 14.5827 2.10576 14.5529 2.11C14.4513 2.05174 14.3391 2.01434 14.2229 2H10.1729C9.3772 2 8.61414 2.31607 8.05153 2.87868C7.48892 3.44129 7.17285 4.20435 7.17285 5V6H6.17285C5.3772 6 4.61414 6.31607 4.05153 6.87868C3.48892 7.44129 3.17285 8.20435 3.17285 9V19C3.17285 19.7956 3.48892 20.5587 4.05153 21.1213C4.61414 21.6839 5.3772 22 6.17285 22H14.1729C14.9685 22 15.7316 21.6839 16.2942 21.1213C16.8568 20.5587 17.1729 19.7956 17.1729 19V18H18.1729C18.9685 18 19.7316 17.6839 20.2942 17.1213C20.8568 16.5587 21.1729 15.7956 21.1729 15V9C21.1729 9 21.1729 9 21.1729 8.94ZM15.1729 5.41L17.7629 8H16.1729C15.9076 8 15.6533 7.89464 15.4657 7.70711C15.2782 7.51957 15.1729 7.26522 15.1729 7V5.41ZM15.1729 19C15.1729 19.2652 15.0675 19.5196 14.88 19.7071C14.6924 19.8946 14.4381 20 14.1729 20H6.17285C5.90763 20 5.65328 19.8946 5.46574 19.7071C5.27821 19.5196 5.17285 19.2652 5.17285 19V9C5.17285 8.73478 5.27821 8.48043 5.46574 8.29289C5.65328 8.10536 5.90763 8 6.17285 8H7.17285V15C7.17285 15.7956 7.48892 16.5587 8.05153 17.1213C8.61414 17.6839 9.3772 18 10.1729 18H15.1729V19ZM19.1729 15C19.1729 15.2652 19.0675 15.5196 18.88 15.7071C18.6924 15.8946 18.4381 16 18.1729 16H10.1729C9.90764 16 9.65328 15.8946 9.46574 15.7071C9.27821 15.5196 9.17285 15.2652 9.17285 15V5C9.17285 4.73478 9.27821 4.48043 9.46574 4.29289C9.65328 4.10536 9.90764 4 10.1729 4H13.1729V7C13.1729 7.79565 13.4889 8.55871 14.0515 9.12132C14.6141 9.68393 15.3772 10 16.1729 10H19.1729V15Z" fill="#AAAFC5"/>
</svg>
