<svg width="16" height="16" viewBox="0 0 16 16" fill="none" xmlns="http://www.w3.org/2000/svg">
<path d="M12.8665 1.93335H3.5332C2.39987 1.93335 1.5332 2.80002 1.5332 3.93335V9.93335C1.5332 11.0667 2.39987 11.9334 3.5332 11.9334H6.19987C6.59987 11.9334 6.86654 11.6667 6.86654 11.2667C6.86654 10.8667 6.59987 10.6 6.19987 10.6H3.5332C3.1332 10.6 2.86654 10.3334 2.86654 9.93335V5.93335H13.5332V6.60002C13.5332 7.00002 13.7999 7.26668 14.1999 7.26668C14.5999 7.26668 14.8665 7.00002 14.8665 6.60002V3.93335C14.8665 2.86668 13.9332 1.93335 12.8665 1.93335ZM13.5332 4.60002H2.86654V3.93335C2.86654 3.53335 3.1332 3.26668 3.5332 3.26668H12.8665C13.2665 3.26668 13.5332 3.53335 13.5332 3.93335V4.60002ZM6.86654 7.26668H4.86654C4.46654 7.26668 4.19987 7.53335 4.19987 7.93335C4.19987 8.33335 4.46654 8.60002 4.86654 8.60002H6.86654C7.26654 8.60002 7.5332 8.33335 7.5332 7.93335C7.5332 7.53335 7.19987 7.26668 6.86654 7.26668Z" fill="#8B90A7"/>
<path d="M13.7334 8.20002C13.6667 8.13335 13.5334 8.13335 13.4667 8.13335C12.8001 8.26668 12.0667 8.13335 11.4667 7.73335C11.3334 7.66668 11.2001 7.66668 11.1334 7.73335C10.5334 8.13335 9.86673 8.26668 9.1334 8.13335C9.06673 8.13335 8.9334 8.13335 8.86673 8.20002C8.80006 8.26668 8.7334 8.33335 8.7334 8.46668V10.8667C8.7334 11.8 9.20006 12.6667 9.9334 13.2L11.0667 14C11.2001 14.0667 11.3334 14.0667 11.4667 14L12.6001 13.2C13.3334 12.6667 13.8001 11.8 13.8001 10.8667V8.46668C13.8667 8.33335 13.8001 8.26668 13.7334 8.20002ZM13.2667 10.8C13.2667 11.5333 12.9334 12.2667 12.3334 12.6667L11.3334 13.4L10.3334 12.6667C9.7334 12.2667 9.40007 11.5333 9.40007 10.8V8.73335C10.0667 8.80002 10.8001 8.60002 11.4001 8.26668C12.0001 8.60002 12.6667 8.80002 13.4001 8.73335V10.8H13.2667Z" fill="#8B90A7" stroke="#8B90A7" stroke-miterlimit="10"/>
</svg>
