<svg width="26" height="16" viewBox="0 0 26 16" fill="none" xmlns="http://www.w3.org/2000/svg">
<path d="M24 0H2C0.89543 0 0 0.89543 0 2V14C0 15.1046 0.89543 16 2 16H24C25.1046 16 26 15.1046 26 14V2C26 0.89543 25.1046 0 24 0Z" fill="#2183CB"/>
<path d="M13.76 13.06H12C10.702 13.0029 9.47716 12.4429 8.58494 11.4984C7.69272 10.5539 7.20318 9.29917 7.22003 8C7.18148 6.73413 7.63858 5.50322 8.49402 4.56933C9.34945 3.63545 10.5356 3.07238 11.8 3H13.8C14.4609 2.99997 15.1152 3.13093 15.7251 3.38533C16.335 3.63972 16.8884 4.0125 17.3534 4.4821C17.8183 4.9517 18.1856 5.50881 18.4339 6.12122C18.6822 6.73364 18.8066 7.3892 18.8 8.05V8.1C18.7689 9.4195 18.2254 10.6751 17.2847 11.6009C16.344 12.5267 15.0799 13.05 13.76 13.06ZM12.14 3.83C11.3129 3.80649 10.4974 4.02899 9.79686 4.46933C9.0963 4.90966 8.54219 5.54801 8.20471 6.30352C7.86724 7.05902 7.76159 7.89769 7.90114 8.71329C8.0407 9.52889 8.41918 10.2847 8.98865 10.885C9.55811 11.4854 10.2929 11.9032 11.1 12.0855C11.9072 12.2679 12.7502 12.2066 13.5225 11.9094C14.2947 11.6123 14.9614 11.0926 15.4381 10.4162C15.9147 9.73983 16.1799 8.93721 16.2 8.11V8C16.2107 6.90977 15.7899 5.85953 15.0293 5.07835C14.2688 4.29717 13.2302 3.84843 12.14 3.83ZM12.78 10.83V5.24C13.5106 5.43069 14.1361 5.90251 14.5201 6.55255C14.9041 7.2026 15.0155 7.97813 14.83 8.71C14.7171 9.21592 14.4655 9.68039 14.1034 10.0513C13.7414 10.4222 13.2831 10.685 12.78 10.81V10.83ZM11.5 10.83C10.7728 10.6244 10.1555 10.1411 9.7814 9.48448C9.40725 8.82785 9.30619 8.05046 9.50003 7.32C9.61837 6.829 9.86641 6.37879 10.2182 6.01641C10.5701 5.65404 11.0127 5.3928 11.5 5.26V10.83Z" fill="white"/>
</svg>
