<svg width="26" height="16" viewBox="0 0 26 16" fill="none" xmlns="http://www.w3.org/2000/svg">
<path d="M24 0H2C0.89543 0 0 0.89543 0 2V14C0 15.1046 0.89543 16 2 16H24C25.1046 16 26 15.1046 26 14V2C26 0.89543 25.1046 0 24 0Z" fill="#DDE5ED"/>
<path d="M3.01027 6.11011H2V9.65238H3.00495C3.53936 9.65238 3.92426 9.52583 4.26295 9.24336C4.46226 9.07744 4.6229 8.86966 4.73354 8.63465C4.84418 8.39964 4.90214 8.14312 4.90332 7.88319C4.90429 6.83828 4.12651 6.11011 3.01027 6.11011ZM3.81418 8.77118C3.5979 8.96719 3.31703 9.05269 2.87238 9.05269H2.68851V6.71028H2.87238C3.31703 6.71028 3.58702 6.79019 3.81418 6.99665C4.05223 7.20942 4.19545 7.53926 4.19545 7.87857C4.19545 8.21788 4.05223 8.55817 3.81418 8.77118Z" fill="#1D1F2A"/>
<path d="M5.90922 6.11011H5.22095V9.65238H5.90922V6.11011Z" fill="#1D1F2A"/>
<path d="M7.59219 7.46927C7.17922 7.31601 7.05778 7.21473 7.05778 7.02333C7.05778 6.80036 7.27382 6.63083 7.57066 6.63083C7.77678 6.63083 7.94612 6.71584 8.12563 6.91768L8.48561 6.44502C8.20051 6.18952 7.83112 6.04931 7.44897 6.05154C6.82456 6.05154 6.34846 6.48679 6.34846 7.06657C6.34846 7.55453 6.57006 7.80446 7.21648 8.03812C7.48598 8.13357 7.62291 8.19721 7.69234 8.23996C7.82976 8.33007 7.89846 8.45855 7.89846 8.60647C7.89846 8.89332 7.6713 9.10609 7.3643 9.10609C7.03601 9.10609 6.77158 8.94117 6.61433 8.63368L6.16968 9.06334C6.48684 9.53066 6.86763 9.73784 7.39139 9.73784C8.10652 9.73784 8.60827 9.26033 8.60827 8.57465C8.60706 8.01164 8.37505 7.75661 7.59219 7.46927Z" fill="#1D1F2A"/>
<path d="M8.82373 7.8835C8.82373 8.92476 9.63804 9.73211 10.6865 9.73211C10.9827 9.73211 11.2364 9.67358 11.5495 9.52566V8.71223C11.2742 8.98864 11.0306 9.10085 10.7185 9.10085C10.0254 9.10085 9.53305 8.59613 9.53305 7.87888C9.53305 7.1988 10.0411 6.66226 10.6861 6.66226C11.0143 6.66226 11.2628 6.77982 11.549 7.06084V6.24741C11.2468 6.09366 10.9984 6.02881 10.7023 6.02881C9.65958 6.02978 8.82373 6.85365 8.82373 7.8835Z" fill="#1D1F2A"/>
<path d="M17.0055 8.48943L16.0646 6.11011H15.3127L16.81 9.74322H17.1804L18.7045 6.11011H17.9587L17.0055 8.48943Z" fill="#1D1F2A"/>
<path d="M19.0161 9.65238H20.968V9.05269H19.7037V8.09644H20.9213V7.49651H19.7037V6.71028H20.968V6.11011H19.0161V9.65238Z" fill="#1D1F2A"/>
<path d="M23.6928 7.15598C23.6928 6.49266 23.2378 6.11011 22.4443 6.11011H21.4236V9.65238H22.1111V8.2293H22.2009L23.1533 9.65238H24.0001L22.8892 8.16008C23.4074 8.05418 23.6928 7.69835 23.6928 7.15598ZM22.3122 7.74085H22.1111V6.66802H22.3231C22.7517 6.66802 22.9859 6.84824 22.9859 7.19314C22.9859 7.54922 22.7517 7.74085 22.3122 7.74085Z" fill="#1D1F2A"/>
<g filter="url(#filter0_i)">
<path d="M15.5198 7.88359C15.5198 8.25614 15.4098 8.62032 15.2036 8.93008C14.9974 9.23985 14.7044 9.48127 14.3616 9.62383C14.0188 9.76638 13.6415 9.80367 13.2776 9.73097C12.9137 9.65828 12.5794 9.47886 12.317 9.21541C12.0546 8.95196 11.876 8.61631 11.8036 8.25091C11.7312 7.88552 11.7684 7.50678 11.9105 7.1626C12.0525 6.81843 12.293 6.52427 12.6016 6.31732C12.9101 6.11038 13.2729 5.99995 13.6439 6C13.8903 5.99997 14.1343 6.04867 14.3619 6.14332C14.5895 6.23797 14.7963 6.37672 14.9705 6.55163C15.1447 6.72655 15.2829 6.93421 15.3771 7.16275C15.4714 7.39129 15.5199 7.63624 15.5198 7.88359Z" fill="#EE7623"/>
</g>
<defs>
<filter id="filter0_i" x="11.7676" y="6" width="4.75223" height="4.76718" filterUnits="userSpaceOnUse" color-interpolation-filters="sRGB">
<feFlood flood-opacity="0" result="BackgroundImageFix"/>
<feBlend mode="normal" in="SourceGraphic" in2="BackgroundImageFix" result="shape"/>
<feColorMatrix in="SourceAlpha" type="matrix" values="0 0 0 0 0 0 0 0 0 0 0 0 0 0 0 0 0 0 127 0" result="hardAlpha"/>
<feOffset dx="1" dy="2"/>
<feGaussianBlur stdDeviation="0.5"/>
<feComposite in2="hardAlpha" operator="arithmetic" k2="-1" k3="1"/>
<feColorMatrix type="matrix" values="0 0 0 0 0.879167 0 0 0 0 0.327533 0 0 0 0 0 0 0 0 1 0"/>
<feBlend mode="normal" in2="shape" result="effect1_innerShadow"/>
</filter>
</defs>
</svg>
