<svg width="24" height="10" viewBox="0 0 24 10" fill="none" xmlns="http://www.w3.org/2000/svg">
<g clip-path="url(#clip0_220_9464)">
<path d="M2.72598 7.7124C3.44334 7.7124 4.0684 7.46444 4.50936 7.01852V7.55373H6.25002V0.156799H4.50936V3.13078C4.0684 2.68486 3.44334 2.4369 2.72598 2.4369C1.17837 2.4369 0 3.59659 0 5.06394C0 6.55066 1.17837 7.7124 2.72598 7.7124ZM1.80396 5.07363C1.80396 4.89712 1.85807 4.72458 1.95947 4.57782C2.06087 4.43106 2.20498 4.31669 2.37358 4.24916C2.54219 4.18164 2.72771 4.164 2.90668 4.19847C3.08565 4.23295 3.25003 4.31799 3.37903 4.44283C3.50804 4.56768 3.59585 4.72673 3.6314 4.89986C3.66693 5.07299 3.64859 5.25245 3.57868 5.41546C3.50877 5.57852 3.39045 5.71786 3.23866 5.81587C3.08688 5.91383 2.90846 5.96607 2.72598 5.96597C2.60472 5.96648 2.48455 5.94368 2.37243 5.89903C2.26031 5.85434 2.15845 5.78862 2.07274 5.70566C1.98701 5.62271 1.91912 5.52413 1.87299 5.41566C1.82686 5.30714 1.8034 5.19092 1.80396 5.07363Z" fill="#1A1A1A"/>
<path d="M8.76237 7.5522H7.02171V2.59558H8.76237V3.60681C9.50083 2.90272 10.4023 2.59558 11.7036 2.59558V4.45936C9.85741 4.45936 8.76237 5.60935 8.76237 7.5522Z" fill="#1A1A1A"/>
<path d="M12.2163 2.59558C12.2057 5.70782 14.0197 7.5522 17.1149 7.5522V5.68843C15.2292 5.61904 14.2454 4.57823 14.2043 2.59558H12.2163Z" fill="#1A1A1A"/>
<path d="M21.2571 2.43689C20.5393 2.43689 19.9142 2.68485 19.4738 3.13077V2.59556H17.7331V9.99045H19.4738V7.01698C19.9142 7.4629 20.5393 7.71086 21.2571 7.71086C22.8042 7.71086 23.9831 6.55066 23.9831 5.08383C23.9831 3.59658 22.8042 2.43689 21.2571 2.43689ZM22.1792 5.07362C22.1793 5.25014 22.1253 5.42275 22.0239 5.56958C21.9226 5.71642 21.7785 5.83086 21.6099 5.89846C21.4413 5.96606 21.2558 5.98377 21.0767 5.94938C20.8978 5.91494 20.7333 5.82994 20.6043 5.70509C20.4752 5.5803 20.3873 5.42127 20.3518 5.2481C20.3162 5.07495 20.3345 4.89549 20.4044 4.73241C20.4743 4.56933 20.5926 4.42998 20.7444 4.33196C20.8962 4.23395 21.0746 4.18169 21.2571 4.18179C21.3784 4.18131 21.4985 4.20406 21.6106 4.24871C21.7226 4.29336 21.8245 4.35904 21.9102 4.44195C21.9959 4.52485 22.0638 4.62336 22.11 4.73177C22.1561 4.84019 22.1796 4.95637 22.1792 5.07362Z" fill="#1A1A1A"/>
<path d="M13.2 2.20884C13.0502 2.21007 12.9018 2.18245 12.7632 2.12761C12.6246 2.07277 12.4987 1.9918 12.3929 1.88942C12.2869 1.78704 12.2032 1.66529 12.1464 1.53127C12.0897 1.39726 12.061 1.25366 12.0622 1.10884C12.0622 0.964321 12.0917 0.821214 12.1489 0.687693C12.206 0.554173 12.2898 0.432855 12.3955 0.330664C12.5011 0.228472 12.6265 0.147408 12.7646 0.0921028C12.9026 0.0367969 13.0506 0.0083313 13.2 0.0083313C13.3494 0.0083313 13.4973 0.0367969 13.6354 0.0921028C13.7734 0.147408 13.8988 0.228472 14.0045 0.330664C14.1102 0.432855 14.194 0.554173 14.2511 0.687693C14.3083 0.821214 14.3378 0.964321 14.3378 1.10884C14.339 1.25366 14.3103 1.39726 14.2536 1.53127C14.1968 1.66529 14.1131 1.78704 14.0071 1.88942C13.9012 1.9918 13.7754 2.07277 13.6367 2.12761C13.4982 2.18245 13.3497 2.21007 13.2 2.20884Z" fill="#1A1A1A"/>
</g>
<defs>
<clipPath id="clip0_220_9464">
<rect width="24" height="10" fill="white"/>
</clipPath>
</defs>
</svg>
