<svg width="26" height="16" viewBox="0 0 26 16" fill="none" xmlns="http://www.w3.org/2000/svg">
<path d="M24 0H2C0.89543 0 0 0.89543 0 2V14C0 15.1046 0.89543 16 2 16H24C25.1046 16 26 15.1046 26 14V2C26 0.89543 25.1046 0 24 0Z" fill="white"/>
<path d="M6.25364 5.76726C6.49417 5.68708 6.74608 5.64637 6.99961 5.64672C8.13792 5.64672 9.08774 6.45524 9.30538 7.53003L10.919 7.20088C10.5484 5.37418 8.93475 4 6.99961 4C6.56865 3.99961 6.14048 4.069 5.73169 4.20548L6.25364 5.76726Z" fill="#FFCA05"/>
<path d="M4.35011 10.9967L5.44101 9.76302C5.19142 9.54231 4.99155 9.27108 4.85464 8.9673C4.71773 8.66352 4.64689 8.33411 4.64682 8.00088C4.64675 7.66766 4.71745 7.33822 4.85424 7.03438C4.99103 6.73054 5.19078 6.45923 5.44028 6.23842L4.34885 5.00464C3.52185 5.73753 3 6.80804 3 8.00004C2.99943 8.56678 3.11953 9.12715 3.35232 9.64385C3.58512 10.1605 3.92526 10.6217 4.35011 10.9967Z" fill="#00A4DF"/>
<path d="M9.30517 8.47217C9.08669 9.54633 8.1375 10.3533 6.99981 10.3533C6.74601 10.3538 6.49381 10.313 6.25312 10.2324L5.73096 11.7948C6.14011 11.9311 6.56858 12.0003 6.99981 11.9999C8.93307 11.9999 10.5465 10.6277 10.9181 8.80341L9.30517 8.47217Z" fill="#EE4123"/>
<path d="M12.329 9.81505C12.2662 9.71081 12.2101 9.60264 12.1611 9.49122C11.9056 8.89799 11.8934 8.28418 12.1089 7.6945C12.3462 7.04831 12.7992 6.55337 13.3846 6.30152C14.1207 5.98469 14.9347 6.04716 15.6404 6.46584C16.0886 6.72302 16.4062 7.11997 16.6475 7.68144C16.6782 7.75331 16.7052 7.83009 16.7311 7.89538L12.329 9.81505ZM13.7996 7.25451C13.2774 7.47921 13.0074 7.96965 13.0628 8.5447L15.2768 7.5915C14.8963 7.14378 14.4008 6.99555 13.7996 7.25451ZM15.5532 9.32847L15.5518 9.32972L15.506 9.29838C15.3739 9.51284 15.1677 9.68656 14.9075 9.79979C14.4126 10.0152 13.9539 9.95983 13.6245 9.67079L13.5942 9.71685C13.5942 9.71633 13.5942 9.71591 13.5933 9.71591L13.0316 10.5565C13.1712 10.6536 13.3208 10.7355 13.4778 10.801C14.0983 11.0589 14.7332 11.0471 15.3586 10.7749C15.8111 10.5789 16.166 10.2798 16.4086 9.9007L15.5532 9.32847Z" fill="black"/>
<path d="M18.2706 5.06396V9.73732L18.997 10.0319L18.5839 10.9951L17.7822 10.6609C17.6023 10.5829 17.4793 10.4637 17.3869 10.329C17.2984 10.1917 17.2319 10.0034 17.2319 9.74985V5.06396H18.2706Z" fill="black"/>
<path d="M20.1526 8.54709C20.1525 8.35803 20.1931 8.17116 20.2714 7.99911C20.3497 7.82705 20.464 7.6738 20.6066 7.5497L19.8615 6.71851C19.6026 6.94746 19.3952 7.2288 19.2531 7.54392C19.1109 7.85904 19.0373 8.20074 19.0371 8.54644C19.0369 8.89214 19.11 9.23394 19.2517 9.54924C19.3934 9.86455 19.6005 10.1462 19.8591 10.3755L20.6035 9.54343C20.4616 9.41916 20.348 9.26595 20.2702 9.0941C20.1924 8.92224 20.1523 8.73573 20.1526 8.54709Z" fill="black"/>
<path d="M21.477 9.87327C21.3343 9.87293 21.1926 9.8498 21.0572 9.80474L20.7012 10.8631C20.9509 10.9469 21.2125 10.9897 21.4759 10.9897C22.6559 10.9909 23.6412 10.1534 23.8693 9.04009L22.7754 8.81665C22.7135 9.1153 22.5506 9.38347 22.3141 9.57595C22.0776 9.76843 21.7819 9.87344 21.477 9.87327Z" fill="black"/>
<path d="M21.4797 6.10645C21.2167 6.10595 20.9553 6.14803 20.7058 6.23107L21.0586 7.29051C21.2365 7.23123 21.4251 7.21042 21.6117 7.22944C21.7982 7.24847 21.9787 7.3069 22.141 7.40087C22.3034 7.49484 22.4439 7.62222 22.5534 7.77457C22.6628 7.92693 22.7387 8.10079 22.776 8.28466L23.87 8.06268C23.645 6.94788 22.6606 6.10729 21.4797 6.10645Z" fill="black"/>
</svg>
