<svg width="64" height="64" viewBox="0 0 64 64" fill="none" xmlns="http://www.w3.org/2000/svg">
<path d="M41.8935 22.1066C41.6456 21.8567 41.3507 21.6583 41.0257 21.5229C40.7008 21.3875 40.3522 21.3178 40.0002 21.3178C39.6482 21.3178 39.2996 21.3875 38.9747 21.5229C38.6497 21.6583 38.3548 21.8567 38.1069 22.1066L32.0002 28.24L25.8935 22.1066C25.3914 21.6045 24.7103 21.3224 24.0002 21.3224C23.2901 21.3224 22.609 21.6045 22.1069 22.1066C21.6047 22.6088 21.3226 23.2898 21.3226 24C21.3226 24.7101 21.6047 25.3912 22.1069 25.8933L28.2402 32L22.1069 38.1066C21.8569 38.3545 21.6586 38.6495 21.5232 38.9744C21.3878 39.2994 21.3181 39.6479 21.3181 40C21.3181 40.352 21.3878 40.7005 21.5232 41.0255C21.6586 41.3505 21.8569 41.6454 22.1069 41.8933C22.3548 42.1432 22.6497 42.3416 22.9747 42.477C23.2996 42.6124 23.6482 42.6821 24.0002 42.6821C24.3522 42.6821 24.7008 42.6124 25.0257 42.477C25.3507 42.3416 25.6456 42.1432 25.8935 41.8933L32.0002 35.76L38.1069 41.8933C38.3548 42.1432 38.6497 42.3416 38.9747 42.477C39.2996 42.6124 39.6482 42.6821 40.0002 42.6821C40.3522 42.6821 40.7008 42.6124 41.0257 42.477C41.3507 42.3416 41.6456 42.1432 41.8935 41.8933C42.1435 41.6454 42.3419 41.3505 42.4773 41.0255C42.6126 40.7005 42.6823 40.352 42.6823 40C42.6823 39.6479 42.6126 39.2994 42.4773 38.9744C42.3419 38.6495 42.1435 38.3545 41.8935 38.1066L35.7602 32L41.8935 25.8933C42.1435 25.6454 42.3419 25.3505 42.4773 25.0255C42.6126 24.7005 42.6823 24.352 42.6823 24C42.6823 23.6479 42.6126 23.2994 42.4773 22.9744C42.3419 22.6495 42.1435 22.3545 41.8935 22.1066ZM50.8535 13.1466C48.3936 10.5997 45.4511 8.56817 42.1977 7.1706C38.9442 5.77302 35.445 5.03739 31.9042 5.00662C28.3635 4.97585 24.852 5.65057 21.5748 6.99139C18.2975 8.33221 15.3202 10.3123 12.8163 12.8161C10.3125 15.3199 8.33246 18.2973 6.99163 21.5745C5.65081 24.8518 4.9761 28.3632 5.00687 31.904C5.03763 35.4448 5.77327 38.944 7.17084 42.1974C8.56841 45.4509 10.5999 48.3934 13.1469 50.8533C15.6068 53.4002 18.5493 55.4318 21.8028 56.8293C25.0562 58.2269 28.5554 58.9626 32.0962 58.9933C35.637 59.0241 39.1484 58.3494 42.4256 57.0086C45.7029 55.6677 48.6803 53.6876 51.1841 51.1838C53.6879 48.68 55.668 45.7026 57.0088 42.4254C58.3496 39.1482 59.0243 35.6367 58.9936 32.0959C58.9628 28.5552 58.2272 25.056 56.8296 21.8025C55.432 18.5491 53.4005 15.6065 50.8535 13.1466ZM47.0935 47.0933C43.6056 50.5851 39.015 52.7595 34.1037 53.2461C29.1923 53.7327 24.2642 52.5015 20.1589 49.762C16.0536 47.0226 13.0252 42.9445 11.5895 38.2226C10.1538 33.5007 10.3997 28.427 12.2853 23.8661C14.1709 19.3051 17.5796 15.539 21.9306 13.2095C26.2816 10.8799 31.3057 10.131 36.1469 11.0903C40.9881 12.0496 45.347 14.6578 48.4809 18.4705C51.6147 22.2832 53.3297 27.0646 53.3335 32C53.3431 34.8034 52.7965 37.5809 51.7254 40.1717C50.6543 42.7624 49.0799 45.115 47.0935 47.0933Z" fill="white"/>
</svg>
