<svg width="26" height="16" viewBox="0 0 26 16" fill="none" xmlns="http://www.w3.org/2000/svg">
<path d="M24 0H2C0.89543 0 0 0.89543 0 2V14C0 15.1046 0.89543 16 2 16H24C25.1046 16 26 15.1046 26 14V2C26 0.89543 25.1046 0 24 0Z" fill="#B3131B"/>
<path d="M2.39141 9.05413L2.56706 8.15805L2.74516 7.21238L2.89777 6.26007L3.04059 5.36504L3.05317 5.30776H3.68594C3.67931 5.3364 3.67931 5.35386 3.67372 5.36504C3.65102 5.47329 3.60562 5.71285 3.54276 6.08267C3.50854 6.28242 3.46245 6.51046 3.41146 6.76748L3.40029 6.8478H3.45162L4.27751 6.85827L5.08175 6.8478H5.14531L5.15613 6.76748C5.19035 6.54503 5.22458 6.31106 5.26997 6.05997C5.36182 5.5585 5.36741 5.52393 5.39604 5.30811H6.03929C6.02917 5.34827 6.02917 5.34827 6.02253 5.36538C6.01101 5.42231 5.95478 5.71879 5.85735 6.26007L5.681 7.21238L5.52106 8.1584C5.43026 8.69479 5.38417 8.99127 5.37404 9.05413C5.37404 9.07578 5.37404 9.07578 5.36741 9.11035H4.72311L4.73533 9.05413C4.75104 8.98533 4.78003 8.82016 4.82508 8.5579C4.84219 8.45977 4.87676 8.29564 4.92216 8.0442L5.01365 7.54238C5.04229 7.38908 5.0594 7.29689 5.06464 7.27419C5.06464 7.26266 5.07057 7.2466 5.07581 7.21761H5.00213C4.89422 7.21238 4.50624 7.21238 4.13573 7.21238C3.76521 7.21238 3.51902 7.21238 3.40517 7.21726H3.33184C3.32032 7.32657 3.31473 7.34822 3.2805 7.54238C3.25187 7.69045 3.22428 7.86156 3.1953 8.04385C3.1499 8.31275 3.12056 8.48316 3.10939 8.55755C3.06399 8.83133 3.03501 8.99581 3.02383 9.05413C3.02383 9.06426 3.02383 9.08765 3.01859 9.11H2.37988L2.39141 9.05413Z" fill="white"/>
<path d="M5.9423 9.05657L6.06208 8.4458L6.19303 7.75959L6.30199 7.09469C6.35682 6.7563 6.38929 6.54433 6.39977 6.45703C6.39977 6.44585 6.39977 6.42944 6.40536 6.40255H6.96584C6.9613 6.42944 6.95537 6.44585 6.95083 6.45703C6.92883 6.54433 6.89076 6.7563 6.82441 7.09469L6.69939 7.75959L6.5859 8.4458C6.53561 8.76707 6.50279 8.97416 6.49161 9.05657C6.49161 9.06705 6.49161 9.08905 6.48742 9.11035H5.92554L5.9423 9.05657ZM6.51501 5.69888C6.51501 5.42161 6.65085 5.25748 6.89076 5.25748C7.0542 5.25748 7.13591 5.33431 7.13591 5.49215C7.13591 5.76489 6.99378 5.93356 6.75946 5.93356C6.62327 5.93356 6.54155 5.87838 6.5192 5.77571C6.51501 5.74777 6.51501 5.72612 6.51501 5.69888Z" fill="white"/>
<path d="M6.78776 10.2599C6.8143 10.1405 6.87995 9.80278 6.98367 9.23635L7.16316 8.2603L7.32136 7.32336C7.39783 6.86554 7.44184 6.57674 7.45825 6.45696C7.45825 6.43496 7.45825 6.43496 7.46314 6.40214H7.94889L7.93702 6.45696L7.91083 6.60852L7.9 6.66894C8.16156 6.4402 8.42836 6.34277 8.7877 6.34277C9.39778 6.34277 9.72499 6.67452 9.72499 7.29612C9.72499 7.6394 9.63245 8.02633 9.47391 8.36996C9.21689 8.90914 8.79294 9.18188 8.22093 9.18188C7.86054 9.18188 7.69711 9.0834 7.56685 8.80054L7.55603 8.86514L7.43066 9.67182C7.38701 9.94456 7.35314 10.1405 7.34301 10.255C7.34301 10.2599 7.34301 10.2819 7.33847 10.3203H6.771C6.78147 10.2819 6.78147 10.2819 6.78776 10.2599ZM7.87661 7.06634L7.69711 8.08046C7.68594 8.15135 7.67581 8.2163 7.67581 8.28824C7.67581 8.64199 7.856 8.8173 8.20941 8.8173C8.44408 8.8173 8.63475 8.73418 8.77653 8.57634C9.00003 8.32072 9.15263 7.81959 9.15263 7.36178C9.15263 6.92002 8.95672 6.70141 8.53138 6.70141C8.27506 6.70141 8.06239 6.80024 7.89302 6.98497L7.87661 7.06634Z" fill="white"/>
<path d="M10.9663 9.17041C10.2319 9.17041 9.87085 8.85542 9.87085 8.20064C9.87085 7.8406 9.96409 7.43761 10.1223 7.10027C10.3618 6.59321 10.8095 6.34283 11.4682 6.34283C12.0946 6.34283 12.4065 6.58169 12.4065 7.05627C12.4065 7.19211 12.373 7.40548 12.3188 7.64993L12.2588 7.64435C12.161 7.63946 11.8551 7.63946 11.3428 7.63946C10.907 7.63946 10.6405 7.63946 10.5371 7.64435L10.4813 7.64993C10.4327 7.89508 10.4282 7.95585 10.4282 8.1301C10.4282 8.56662 10.6779 8.80059 11.1469 8.80059C11.4528 8.80059 11.7461 8.74088 12.074 8.59875L11.9916 9.03457C11.6756 9.12187 11.3044 9.17041 10.9663 9.17041ZM10.6126 7.3339C10.6726 7.33983 10.8745 7.33983 11.2125 7.33983H11.2995C11.5446 7.33983 11.7136 7.33983 11.8114 7.3339H11.861L11.8715 7.26301C11.8823 7.19805 11.8883 7.13764 11.8883 7.08386C11.8883 6.81636 11.7077 6.6861 11.3592 6.6861C10.9174 6.6861 10.6667 6.88166 10.5525 7.3339H10.6126Z" fill="white"/>
<path d="M12.4878 9.05657L12.6083 8.4458L12.7389 7.75959L12.8478 7.09469C12.9023 6.7563 12.9348 6.54433 12.9459 6.45703C12.9459 6.44585 12.9515 6.42944 12.9515 6.40255H13.4415L13.431 6.45703L13.3667 6.8003L13.3493 6.87608C13.4415 6.72976 13.4746 6.69065 13.5448 6.60858C13.6988 6.43503 13.9 6.34213 14.1123 6.34213C14.222 6.34213 14.3145 6.36414 14.4172 6.41303L14.347 6.80554C14.2269 6.76748 14.1287 6.75176 14.0254 6.75176C13.6988 6.75176 13.4093 7.0458 13.2945 7.49733C13.2519 7.6667 13.2124 7.86296 13.1757 8.09204C13.0664 8.77301 13.0545 8.82714 13.0332 9.11035H12.4773L12.4878 9.05657Z" fill="white"/>
<path d="M16.3767 6.82719C16.1476 6.74582 15.9025 6.70147 15.6783 6.70147C15.4118 6.70147 15.2089 6.76747 15.0738 6.89808C14.8503 7.11075 14.676 7.63946 14.676 8.11334C14.676 8.5771 14.8782 8.80059 15.2924 8.80059C15.5375 8.80059 15.8536 8.72412 16.0708 8.61516L15.9943 9.02863C15.7167 9.12187 15.423 9.17041 15.1234 9.17041C14.6973 9.17041 14.4634 9.07193 14.2832 8.82748C14.1634 8.65322 14.1145 8.47338 14.1145 8.18458C14.1145 7.80848 14.207 7.41631 14.3817 7.07234C14.4585 6.91414 14.5667 6.77271 14.7033 6.65258C14.9432 6.43502 15.2484 6.34213 15.7443 6.34213C15.9185 6.34213 16.1033 6.3533 16.398 6.38019L16.4525 6.38543L16.3767 6.82719Z" fill="white"/>
<path d="M17.1944 9.17041C16.6437 9.17041 16.3828 8.94133 16.3828 8.46255C16.3828 7.75365 16.8836 7.34577 17.7503 7.34577C17.8862 7.34577 18.1537 7.3559 18.3328 7.36707L18.3447 7.30736C18.3824 7.11075 18.3824 7.09468 18.3824 7.02903C18.3824 6.81112 18.2026 6.70147 17.8317 6.70147C17.5492 6.70147 17.2768 6.74582 16.9216 6.8443L17.0313 6.39661C17.0526 6.40219 17.069 6.40219 17.0798 6.40219C17.1664 6.40219 17.3037 6.39137 17.494 6.36937C17.6574 6.3533 17.8209 6.34283 17.9731 6.34283C18.6216 6.34283 18.9111 6.51185 18.9111 6.8876C18.9111 6.98503 18.8951 7.09468 18.8511 7.3339L18.7638 7.83013C18.6667 8.35919 18.6118 8.77894 18.6118 9.02374C18.6118 9.04539 18.6118 9.07787 18.6164 9.11035H18.1261V9.06739C18.1261 8.99022 18.1484 8.82155 18.1697 8.66335C17.9246 9.02374 17.6361 9.17041 17.1944 9.17041ZM18.219 7.67787C18.0548 7.66181 17.9731 7.66181 17.8593 7.66181C17.5265 7.66181 17.3306 7.70441 17.1783 7.82489C17.0152 7.95026 16.9164 8.15664 16.9164 8.38573C16.9164 8.65916 17.0798 8.80513 17.3788 8.80513C17.6794 8.80513 17.9462 8.64205 18.0779 8.3756C18.1593 8.20064 18.219 7.98797 18.2731 7.68276L18.219 7.67787Z" fill="white"/>
<path d="M19.0861 9.05657L19.2049 8.4458L19.3372 7.75959L19.4462 7.09469C19.4999 6.7563 19.5328 6.54433 19.5429 6.45703C19.5429 6.44585 19.5488 6.42944 19.5488 6.40255H20.0398L20.0276 6.45703L19.9627 6.8003L19.9466 6.87608C20.0398 6.72976 20.072 6.69065 20.1428 6.60858C20.2962 6.43503 20.4969 6.34213 20.71 6.34213C20.8186 6.34213 20.9111 6.36414 21.0148 6.41303L20.9439 6.80554C20.8238 6.76748 20.7264 6.75176 20.6216 6.75176C20.2962 6.75176 20.007 7.0458 19.8928 7.49733C19.8492 7.6667 19.8107 7.86296 19.7727 8.09204C19.6637 8.77301 19.6526 8.82714 19.6302 9.11035H19.075L19.0861 9.05657Z" fill="white"/>
<path d="M21.6499 9.17041C21.0123 9.17041 20.7126 8.87637 20.7126 8.23941C20.7126 7.86854 20.8052 7.47568 20.9794 7.13764C21.241 6.61521 21.6939 6.34283 22.2925 6.34283C22.4622 6.34283 22.6309 6.35854 22.7667 6.39137C22.8111 6.40743 22.8387 6.41302 22.92 6.44026L22.9305 6.37461C22.9525 6.26565 22.9797 6.09209 23.0175 5.85183C23.0608 5.59027 23.0887 5.3996 23.1048 5.27877L23.1107 5.23547H23.6663L23.6558 5.27388C23.6115 5.49249 23.5472 5.81936 23.4651 6.26565C23.3171 7.06221 23.2633 7.36183 23.1812 7.85702C23.0828 8.46255 23.0395 8.83272 23.0395 9.07193V9.11035H22.5327C22.5376 9.02374 22.5376 8.99615 22.5547 8.88196C22.5712 8.79396 22.5771 8.76253 22.5876 8.66929C22.3704 9.04015 22.1193 9.17041 21.6499 9.17041ZM22.3201 6.69693C22.0805 6.69693 21.8853 6.76188 21.7425 6.8876C21.4704 7.12716 21.285 7.64435 21.285 8.17899C21.285 8.60957 21.4596 8.80513 21.8403 8.80513C22.1242 8.80513 22.3913 8.64205 22.5104 8.39062C22.5659 8.27188 22.6089 8.12417 22.6473 7.95585C22.7129 7.62304 22.8002 7.14881 22.8491 6.85966L22.8547 6.8003C22.6588 6.72976 22.5048 6.69693 22.3201 6.69693Z" fill="white"/>
</svg>
