<svg width="16" height="17" viewBox="0 0 16 17" fill="currentColor" xmlns="http://www.w3.org/2000/svg">
  <path d="M11.3337 6.49998V5.16665C11.3337 4.28259 10.9825 3.43475 10.3573 2.80962C9.73223 2.1845 8.88438 1.83331 8.00033 1.83331C7.11627 1.83331 6.26842 2.1845 5.6433 2.80962C5.01818 3.43475 4.66699 4.28259 4.66699 5.16665V6.49998C4.13656 6.49998 3.62785 6.71069 3.25278 7.08577C2.87771 7.46084 2.66699 7.96955 2.66699 8.49998V13.1666C2.66699 13.6971 2.87771 14.2058 3.25278 14.5809C3.62785 14.9559 4.13656 15.1666 4.66699 15.1666H11.3337C11.8641 15.1666 12.3728 14.9559 12.7479 14.5809C13.1229 14.2058 13.3337 13.6971 13.3337 13.1666V8.49998C13.3337 7.96955 13.1229 7.46084 12.7479 7.08577C12.3728 6.71069 11.8641 6.49998 11.3337 6.49998ZM6.00033 5.16665C6.00033 4.63621 6.21104 4.12751 6.58611 3.75243C6.96118 3.37736 7.46989 3.16665 8.00033 3.16665C8.53076 3.16665 9.03947 3.37736 9.41454 3.75243C9.78961 4.12751 10.0003 4.63621 10.0003 5.16665V6.49998H6.00033V5.16665ZM12.0003 13.1666C12.0003 13.3435 11.9301 13.513 11.8051 13.6381C11.68 13.7631 11.5105 13.8333 11.3337 13.8333H4.66699C4.49018 13.8333 4.32061 13.7631 4.19559 13.6381C4.07056 13.513 4.00033 13.3435 4.00033 13.1666V8.49998C4.00033 8.32317 4.07056 8.1536 4.19559 8.02858C4.32061 7.90355 4.49018 7.83331 4.66699 7.83331H11.3337C11.5105 7.83331 11.68 7.90355 11.8051 8.02858C11.9301 8.1536 12.0003 8.32317 12.0003 8.49998V13.1666Z" fill="currentColor"/>
</svg>
