<svg width="26" height="16" viewBox="0 0 26 16" fill="none" xmlns="http://www.w3.org/2000/svg">
<path d="M24 0H2C0.89543 0 0 0.89543 0 2V14C0 15.1046 0.89543 16 2 16H24C25.1046 16 26 15.1046 26 14V2C26 0.89543 25.1046 0 24 0Z" fill="#353A48"/>
<path d="M10.09 12.3599C12.4979 12.3599 14.45 10.4079 14.45 7.99989C14.45 5.59193 12.4979 3.63989 10.09 3.63989C7.68202 3.63989 5.72998 5.59193 5.72998 7.99989C5.72998 10.4079 7.68202 12.3599 10.09 12.3599Z" fill="#E82C30"/>
<path d="M15.91 12.3599C18.318 12.3599 20.27 10.4079 20.27 7.99989C20.27 5.59193 18.318 3.63989 15.91 3.63989C13.5021 3.63989 11.55 5.59193 11.55 7.99989C11.55 10.4079 13.5021 12.3599 15.91 12.3599Z" fill="#ECA21D"/>
<path d="M13.0001 4.36011C12.0374 4.87197 11.3168 5.74459 10.9963 6.78677C10.6757 7.82895 10.7814 8.95569 11.2901 9.92011C11.5813 10.476 11.9992 10.9556 12.5101 11.3201L13.0001 11.6401H13.0501C14.0019 11.1253 14.7116 10.2551 15.0244 9.21916C15.3372 8.18326 15.2278 7.0657 14.7201 6.11011C14.3342 5.3682 13.7352 4.75873 13.0001 4.36011Z" fill="#F36D1E"/>
</svg>
