<svg width="25" height="24" viewBox="0 0 25 24" fill="none" xmlns="http://www.w3.org/2000/svg">
<path d="M18.0029 10.82C17.7377 10.82 17.4834 10.9254 17.2958 11.1129C17.1083 11.3004 17.0029 11.5548 17.0029 11.82V19C17.0029 19.2652 16.8976 19.5196 16.71 19.7071C16.5225 19.8946 16.2681 20 16.0029 20H5.00293C4.73771 20 4.48336 19.8946 4.29582 19.7071C4.10829 19.5196 4.00293 19.2652 4.00293 19V8C4.00293 7.73478 4.10829 7.48043 4.29582 7.29289C4.48336 7.10536 4.73771 7 5.00293 7H12.1829C12.4481 7 12.7025 6.89464 12.89 6.70711C13.0776 6.51957 13.1829 6.26522 13.1829 6C13.1829 5.73478 13.0776 5.48043 12.89 5.29289C12.7025 5.10536 12.4481 5 12.1829 5H5.00293C4.20728 5 3.44422 5.31607 2.88161 5.87868C2.319 6.44129 2.00293 7.20435 2.00293 8V19C2.00293 19.7956 2.319 20.5587 2.88161 21.1213C3.44422 21.6839 4.20728 22 5.00293 22H16.0029C16.7986 22 17.5616 21.6839 18.1243 21.1213C18.6869 20.5587 19.0029 19.7956 19.0029 19V11.82C19.0029 11.5548 18.8976 11.3004 18.71 11.1129C18.5225 10.9254 18.2681 10.82 18.0029 10.82ZM21.9229 2.62C21.8215 2.37565 21.6273 2.18147 21.3829 2.08C21.2627 2.02876 21.1336 2.00158 21.0029 2H15.0029C14.7377 2 14.4834 2.10536 14.2958 2.29289C14.1083 2.48043 14.0029 2.73478 14.0029 3C14.0029 3.26522 14.1083 3.51957 14.2958 3.70711C14.4834 3.89464 14.7377 4 15.0029 4H18.5929L8.29293 14.29C8.1992 14.383 8.12481 14.4936 8.07404 14.6154C8.02327 14.7373 7.99713 14.868 7.99713 15C7.99713 15.132 8.02327 15.2627 8.07404 15.3846C8.12481 15.5064 8.1992 15.617 8.29293 15.71C8.38589 15.8037 8.49649 15.8781 8.61835 15.9289C8.74021 15.9797 8.87092 16.0058 9.00293 16.0058C9.13494 16.0058 9.26565 15.9797 9.38751 15.9289C9.50937 15.8781 9.61997 15.8037 9.71293 15.71L20.0029 5.41V9C20.0029 9.26522 20.1083 9.51957 20.2958 9.70711C20.4834 9.89464 20.7377 10 21.0029 10C21.2681 10 21.5225 9.89464 21.71 9.70711C21.8976 9.51957 22.0029 9.26522 22.0029 9V3C22.0014 2.86932 21.9742 2.74022 21.9229 2.62Z" fill="white"/>
</svg>
