<svg width="25" height="14" viewBox="0 0 25 14" fill="none" xmlns="http://www.w3.org/2000/svg">
<g clip-path="url(#clip0_377_9376)">
<path d="M0.493148 3.60688C0.86035 2.91034 1.41313 2.32603 2.09188 1.91695C2.77062 1.50788 3.54958 1.28958 4.34471 1.28559C4.40299 1.28559 4.45994 1.28559 4.51685 1.28889C3.77268 2.05692 3.37413 2.99629 3.31585 4.43244C3.30312 4.73546 3.31585 6.21263 3.31585 7.87241C3.31585 10.3353 3.31585 13.1997 3.31585 13.1997H0.0148853V7.38485C0.0148853 6.78484 -0.0186066 6.16898 0.0148853 5.56299C0.0523963 4.88693 0.171628 4.22342 0.493148 3.60688ZM7.58404 0.000240374C7.00866 -0.00590519 6.43827 0.105852 5.90883 0.328453C5.37939 0.551053 4.90247 0.879663 4.50815 1.29352C6.96779 1.29352 8.56003 2.94734 8.6491 5.58153C8.6692 6.1855 8.6759 9.41838 8.6759 9.41838V13.197H11.9762V8.09002C11.9762 6.54603 11.9889 5.20907 11.8797 4.2889C11.5756 1.72021 9.98409 0.000240374 7.58404 0.000240374ZM24.9851 7.94913C25.0186 7.34318 24.9851 6.72796 24.9851 6.12795V0.313142H21.6855C21.6855 0.313142 21.6855 3.17755 21.6855 5.63975C21.6855 7.29755 21.6982 8.77539 21.6855 9.07968C21.6272 10.5165 21.2287 11.4552 20.4845 12.2232C20.5414 12.2232 20.599 12.2272 20.6566 12.2272C21.4517 12.2232 22.2307 12.0049 22.9095 11.5958C23.5882 11.1868 24.141 10.6025 24.5082 9.90594C24.8297 9.28739 24.9489 8.62456 24.9851 7.94913ZM17.416 13.5112C17.9913 13.5174 18.5617 13.4056 19.0912 13.183C19.6206 12.9604 20.0975 12.6318 20.4919 12.218C18.0322 12.218 16.44 10.5641 16.3509 7.92996C16.3308 7.32531 16.3221 5.82564 16.3221 4.08847V0.309834L13.0238 0.313142V5.42475C13.0238 6.96875 13.0111 8.3057 13.1203 9.22588C13.4257 11.7946 15.0172 13.5112 17.416 13.5112Z" fill="#1A1A1A"/>
</g>
<defs>
<clipPath id="clip0_377_9376">
<rect width="25" height="13.5246" fill="white"/>
</clipPath>
</defs>
</svg>
