<svg width="17" height="16" viewBox="0 0 17 16" fill="none" xmlns="http://www.w3.org/2000/svg">
<path d="M12.9782 12.2399C12.3504 12.2399 11.76 11.9955 11.3162 11.5518L8.91632 9.152C8.7479 8.98305 8.45418 8.98358 8.28576 9.152L5.87716 11.5606C5.43323 12.0042 4.84286 12.2487 4.21509 12.2487H3.74219L6.78157 15.2881C7.73083 16.2373 9.26986 16.2373 10.2191 15.2881L13.2673 12.2399H12.9782Z" fill="#1D1F2A"/>
<path d="M4.21501 3.75123C4.84279 3.75123 5.43316 3.99573 5.87701 4.43943L8.28561 6.84841C8.45907 7.02187 8.74233 7.02262 8.91624 6.84818L11.316 4.44816C11.76 4.00446 12.3503 3.76004 12.9781 3.76004H13.2672L10.219 0.711923C9.26979 -0.237338 7.73076 -0.237338 6.7815 0.711923L3.74219 3.75123H4.21501Z" fill="#1D1F2A"/>
<path d="M15.7881 6.28133L13.9461 4.43932C13.9055 4.45558 13.8616 4.46574 13.8153 4.46574H12.9779C12.5448 4.46574 12.121 4.6413 11.8151 4.94744L9.41523 7.34731C9.19074 7.57187 8.89567 7.6843 8.60082 7.6843C8.30575 7.6843 8.0109 7.57187 7.78634 7.34754L5.37751 4.93871C5.07153 4.63258 4.64777 4.45701 4.21475 4.45701H3.18497C3.1411 4.45701 3.10001 4.44662 3.06125 4.43202L1.21195 6.28133C0.262685 7.23051 0.262685 8.76955 1.21195 9.71888L3.06118 11.5681C3.09993 11.5535 3.1411 11.5431 3.18497 11.5431H4.21475C4.64777 11.5431 5.07153 11.3676 5.37751 11.0614L7.78611 8.65283C8.22146 8.21786 8.98033 8.21763 9.41523 8.65305L11.8151 11.0526C12.121 11.3588 12.5448 11.5344 12.9779 11.5344H13.8153C13.8617 11.5344 13.9055 11.5445 13.9462 11.5607L15.7881 9.71888C16.7373 8.76955 16.7373 7.23051 15.7881 6.28133Z" fill="#1D1F2A"/>
</svg>
