<svg width="127" height="30" viewBox="0 0 127 30" fill="none" xmlns="http://www.w3.org/2000/svg">
<path d="M13.939 14.9385V18H12.9077L12.9077 10.1797H15.792C16.6478 10.1797 17.3174 10.3981 17.8008 10.835C18.2878 11.2718 18.5312 11.8501 18.5312 12.5698C18.5312 13.3289 18.2931 13.9144 17.8169 14.3262C17.3442 14.7344 16.6657 14.9385 15.7812 14.9385H13.939ZM13.939 14.0952H15.792C16.3434 14.0952 16.766 13.9663 17.0596 13.7085C17.3532 13.4471 17.5 13.0711 17.5 12.5806C17.5 12.1151 17.3532 11.7427 17.0596 11.4634C16.766 11.1841 16.3631 11.0391 15.8511 11.0283H13.939L13.939 14.0952ZM19.397 15.0405C19.397 14.4712 19.508 13.9591 19.73 13.5044C19.9556 13.0496 20.2671 12.6987 20.6646 12.4517C21.0656 12.2046 21.5222 12.0811 22.0342 12.0811C22.8256 12.0811 23.4647 12.355 23.9517 12.9028C24.4423 13.4507 24.6876 14.1794 24.6876 15.0889V15.1587C24.6876 15.7244 24.5783 16.2329 24.3599 16.6841C24.1451 17.1317 23.8353 17.4808 23.4307 17.7314C23.0297 17.9821 22.5678 18.1074 22.045 18.1074C21.2572 18.1074 20.6181 17.8335 20.1275 17.2856C19.6405 16.7378 19.397 16.0127 19.397 15.1104V15.0405ZM20.3961 15.1587C20.3961 15.8032 20.5447 16.3206 20.8419 16.7109C21.1426 17.1012 21.5437 17.2964 22.045 17.2964C22.5499 17.2964 22.9509 17.0994 23.2481 16.7056C23.5453 16.3081 23.6939 15.7531 23.6939 15.0405C23.6939 14.4032 23.5417 13.8875 23.2374 13.4937C22.9366 13.0962 22.5355 12.8975 22.0342 12.8975C21.5437 12.8975 21.148 13.0926 20.8472 13.4829C20.5464 13.8732 20.3961 14.4318 20.3961 15.1587ZM31.1232 16.6304L32.2403 12.1885H33.234L31.5421 18H30.7364L29.3238 13.5957L27.9488 18H27.1432L25.4567 12.1885L26.4449 12.1885L27.589 16.5391L28.9425 12.1885H29.7428L31.1232 16.6304ZM36.7048 18.1074C35.917 18.1074 35.276 17.8496 34.7819 17.334C34.2878 16.8148 34.0407 16.1219 34.0407 15.2554V15.0728C34.0407 14.4963 34.1499 13.9824 34.3683 13.5313C34.5903 13.0765 34.8983 12.722 35.2922 12.4678C35.6896 12.21 36.1193 12.0811 36.5812 12.0811C37.3368 12.0811 37.924 12.3299 38.3429 12.8276C38.7619 13.3254 38.9714 14.0379 38.9714 14.9653V15.3789H35.0343C35.0487 15.9518 35.2152 16.4155 35.5339 16.77C35.8561 17.1209 36.2643 17.2964 36.7585 17.2964C37.1094 17.2964 37.4066 17.2248 37.6501 17.0815C37.8936 16.9383 38.1066 16.7485 38.2892 16.5122L38.8962 16.9849C38.4092 17.7332 37.6787 18.1074 36.7048 18.1074ZM36.5812 12.8975C36.1802 12.8975 35.8436 13.0443 35.5715 13.3379C35.2993 13.6279 35.131 14.0361 35.0666 14.5625H37.9777V14.4873C37.9491 13.9824 37.813 13.5921 37.5695 13.3164C37.326 13.0371 36.9966 12.8975 36.5812 12.8975ZM42.9792 13.0801C42.8288 13.055 42.6659 13.0425 42.4905 13.0425C41.8388 13.0425 41.3965 13.32 41.1638 13.875V18H40.1701V12.1885H41.1369L41.1531 12.8599C41.4789 12.3407 41.9408 12.0811 42.5388 12.0811C42.7322 12.0811 42.879 12.1061 42.9792 12.1563V13.0801ZM46.2459 18.1074C45.4581 18.1074 44.8172 17.8496 44.323 17.334C43.8289 16.8148 43.5818 16.1219 43.5818 15.2554V15.0728C43.5818 14.4963 43.691 13.9824 43.9095 13.5313C44.1315 13.0765 44.4394 12.722 44.8333 12.4678C45.2307 12.21 45.6604 12.0811 46.1223 12.0811C46.8779 12.0811 47.4651 12.3299 47.8841 12.8276C48.303 13.3254 48.5125 14.0379 48.5125 14.9653V15.3789H44.5755C44.5898 15.9518 44.7563 16.4155 45.075 16.77C45.3972 17.1209 45.8054 17.2964 46.2996 17.2964C46.6505 17.2964 46.9477 17.2248 47.1912 17.0815C47.4347 16.9383 47.6477 16.7485 47.8304 16.5122L48.4373 16.9849C47.9503 17.7332 47.2198 18.1074 46.2459 18.1074ZM46.1223 12.8975C45.7213 12.8975 45.3847 13.0443 45.1126 13.3379C44.8404 13.6279 44.6721 14.0361 44.6077 14.5625H47.5188V14.4873C47.4902 13.9824 47.3541 13.5921 47.1106 13.3164C46.8671 13.0371 46.5377 12.8975 46.1223 12.8975ZM49.4696 15.0459C49.4696 14.1543 49.6808 13.4382 50.1034 12.8975C50.5259 12.3532 51.0791 12.0811 51.763 12.0811C52.4434 12.0811 52.9823 12.3138 53.3797 12.7793V9.75H54.3734V18H53.4603L53.4119 17.377C53.0145 17.8639 52.4613 18.1074 51.7523 18.1074C51.0791 18.1074 50.5295 17.8317 50.1034 17.2803C49.6808 16.7288 49.4696 16.0091 49.4696 15.1211V15.0459ZM50.4632 15.1587C50.4632 15.8175 50.5993 16.3332 50.8714 16.7056C51.1436 17.078 51.5195 17.2642 51.9994 17.2642C52.6296 17.2642 53.0897 16.9813 53.3797 16.4155V13.7461C53.0825 13.1982 52.626 12.9243 52.0101 12.9243C51.5231 12.9243 51.1436 13.1123 50.8714 13.4883C50.5993 13.8643 50.4632 14.4211 50.4632 15.1587ZM63.6567 15.1587C63.6567 16.0467 63.4526 16.7611 63.0444 17.3018C62.6362 17.8389 62.0883 18.1074 61.4008 18.1074C60.6668 18.1074 60.0992 17.8478 59.6982 17.3286L59.6499 18H58.7368V9.75H59.7304V12.8276C60.1315 12.3299 60.6847 12.0811 61.3901 12.0811C62.0955 12.0811 62.6487 12.3478 63.0498 12.8813C63.4544 13.4149 63.6567 14.1453 63.6567 15.0728V15.1587ZM62.663 15.0459C62.663 14.3691 62.5323 13.8464 62.2709 13.4775C62.0096 13.1087 61.6336 12.9243 61.143 12.9243C60.4877 12.9243 60.0169 13.2287 59.7304 13.8374V16.3511C60.0348 16.9598 60.5092 17.2642 61.1538 17.2642C61.63 17.2642 62.0006 17.0798 62.2656 16.7109C62.5305 16.3421 62.663 15.7871 62.663 15.0459ZM66.7944 16.5444L68.148 12.1885H69.2114L66.875 18.897C66.5134 19.8638 65.9386 20.3472 65.1509 20.3472L64.9629 20.3311L64.5923 20.2612V19.4556L64.8608 19.4771C65.1974 19.4771 65.4588 19.409 65.645 19.2729C65.8348 19.1369 65.9906 18.888 66.1123 18.5264L66.3325 17.9355L64.2593 12.1885L65.3442 12.1885L66.7944 16.5444Z" fill="#8B90A7"/>
<rect x="0.25" y="0.25" width="126.5" height="29.5" rx="14.75" stroke="#5E6277" stroke-width="0.5"/>
<path d="M81.9658 13.3589C80.6881 13.3589 79.6602 12.3248 79.6602 11.0395C79.6602 9.75424 80.6881 8.72018 81.9658 8.72018C83.2435 8.72018 84.2714 9.75424 84.2714 11.0395C84.2714 12.3152 83.2435 13.3589 81.9658 13.3589ZM81.9562 7C80.9091 7 79.9484 7.40589 79.2375 8.0727C78.9877 8.3143 78.6323 8.37228 78.2288 8.39161H76.7205C76.317 8.39161 76 8.7685 76 9.22271C76 9.68658 76.317 10.0538 76.7205 10.0538H77.1528C77.5851 10.0731 77.931 10.4307 77.931 10.8752V11.6967V16.9249V17.6787V19.1669C77.931 19.6308 78.4017 19.998 78.8436 19.998C79.2759 19.998 79.7562 19.6211 79.7562 19.1669V17.6787V15.1467C79.7562 14.8471 79.8619 14.5186 80.3423 14.7118C80.3519 14.7215 80.3711 14.7215 80.3807 14.7312C80.3807 14.7312 80.3903 14.7312 80.3903 14.7408C80.8706 14.9438 81.399 15.0597 81.9562 15.0597C84.1658 15.0597 85.9622 13.2526 85.9622 11.0299C85.9622 8.80716 84.1658 7 81.9562 7Z" fill="#F04E98"/>
<path d="M88.4983 10.0538H87.1437C86.6922 10.0538 86.3271 9.68653 86.3271 9.23232C86.3271 8.77812 86.6922 8.41089 87.1437 8.41089H90.3139C90.7655 8.41089 91.1305 8.77812 91.1305 9.23232V15.6685C91.1305 17.4274 91.8799 18.3164 93.4169 18.3164C94.6082 18.3164 95.3959 17.6786 95.7706 16.403C95.8955 15.9971 96.299 15.7458 96.7121 15.8231L96.7601 15.8328C97.2308 15.9294 97.519 16.3933 97.3941 16.8572C96.8369 18.8963 95.4055 19.9593 93.4169 19.9593C90.9 19.9593 89.3245 18.3744 89.3245 15.6685V11.7063V10.8849C89.3148 10.421 88.9498 10.0538 88.4983 10.0538Z" fill="#F04E98"/>
<path d="M104.773 22.4142C102.65 22.4335 101.286 21.5445 101.267 20.2591C101.257 19.6213 101.555 19.3507 101.939 19.0415C102.736 18.4133 106.531 18.3747 107.53 18.8289C108.116 19.0995 108.203 19.4957 108.212 20.1335C108.232 21.4671 106.81 22.3949 104.773 22.4142ZM106.156 13.6973C105.734 14.0839 105.224 14.2965 104.619 14.2965C104.014 14.3061 103.495 14.1322 103.092 13.7456C102.66 13.3688 102.458 12.8276 102.448 12.1318C102.439 11.4359 102.64 10.9141 103.063 10.5275C103.467 10.141 103.976 9.92838 104.581 9.92838C105.186 9.91872 105.705 10.1217 106.128 10.4985C106.531 10.8754 106.742 11.4166 106.752 12.0931C106.761 12.7696 106.55 13.3011 106.156 13.6973ZM109.548 16.8864C109.672 16.1423 109.586 15.2822 108.75 14.741C108.606 14.654 108.174 14.4125 108.203 14.0645C108.212 13.9583 108.27 13.736 108.308 13.6683C108.491 13.1948 108.587 12.6633 108.577 12.0738C108.577 12.0544 108.577 12.0448 108.577 12.0254C108.577 12.0158 108.577 12.0158 108.577 12.0061C108.577 11.9868 108.577 11.9675 108.577 11.9481C108.568 11.7162 108.539 11.4843 108.481 11.262C108.337 10.7015 108.491 10.6145 108.597 10.5469L109.615 10.0733C109.999 9.88973 110.143 9.38719 109.941 8.93299C109.73 8.48845 109.26 8.26618 108.866 8.44979L107.588 9.04896C107.348 9.16492 107.088 9.10694 106.81 8.94265C106.771 8.91366 106.733 8.89433 106.685 8.86534C106.08 8.50777 105.359 8.29517 104.591 8.29517C102.391 8.29517 100.604 10.0057 100.604 12.1124C100.604 14.2192 102.391 15.9297 104.591 15.9297C104.706 15.9297 104.831 15.92 104.946 15.9104H104.956C104.975 15.9104 104.994 15.9104 105.003 15.9104C105.061 15.9007 105.109 15.9007 105.167 15.891C105.417 15.8524 105.657 15.804 105.887 15.7267C106.137 15.6591 106.349 15.5915 106.541 15.5915C107.098 15.5818 107.857 15.9297 107.79 16.6255C107.751 17.0217 107.357 16.9734 106.502 16.9637H103.236C100.815 16.9927 99.4605 18.0847 99.4797 20.1335C99.4893 21.4671 100.018 22.4239 101.055 23.0714C102.093 23.7188 103.351 24.0184 104.802 23.9991C108.097 23.9701 109.913 22.6365 109.98 20.2108C109.999 19.6406 109.98 19.3604 109.769 18.9448C109.346 18.1137 109.442 17.4856 109.548 16.8864Z" fill="#F04E98"/>
<path d="M99.7094 8.39154L99.6518 8.38188C99.5942 8.37221 99.5461 8.36255 99.4885 8.36255C99.1234 8.36255 98.7872 8.61381 98.6719 8.98104C98.4798 9.61886 98.182 10.1021 97.7881 10.421C97.3942 10.7399 96.8947 10.9042 96.299 10.9042C95.7034 10.9042 95.2039 10.7399 94.81 10.421C94.4161 10.1021 94.1183 9.61886 93.9262 8.98104C93.8109 8.61381 93.4843 8.36255 93.1096 8.36255C93.052 8.36255 93.0039 8.37221 92.9463 8.38188L92.8886 8.39154C92.4852 8.46885 92.2065 8.83608 92.2065 9.2323C92.2065 9.30962 92.2162 9.38693 92.2354 9.46424C92.5236 10.4983 93.0231 11.2907 93.7148 11.8222C94.4065 12.3538 95.2711 12.6244 96.2894 12.6244C97.3077 12.6244 98.1724 12.3538 98.864 11.8222C99.5557 11.2907 100.055 10.4983 100.343 9.46424C100.363 9.38693 100.372 9.30962 100.372 9.2323C100.392 8.83608 100.113 8.47851 99.7094 8.39154Z" fill="#F04E98"/>
</svg>
