<svg width="121" height="22" viewBox="0 0 121 22" fill="none" xmlns="http://www.w3.org/2000/svg">
<path d="M12.7926 14L12.7926 7.45455H15.0043C15.5178 7.45455 15.9375 7.54723 16.2635 7.7326C16.5916 7.91584 16.8345 8.16406 16.9922 8.47727C17.1499 8.79048 17.2287 9.13991 17.2287 9.52557C17.2287 9.91122 17.1499 10.2617 16.9922 10.5771C16.8366 10.8924 16.5959 11.1438 16.2699 11.3313C15.9439 11.5167 15.5263 11.6094 15.017 11.6094H13.4318V10.9062H14.9915C15.343 10.9062 15.6254 10.8455 15.8384 10.7241C16.0515 10.6026 16.206 10.4386 16.3018 10.2319C16.3999 10.0231 16.4489 9.78764 16.4489 9.52557C16.4489 9.26349 16.3999 9.02912 16.3018 8.82244C16.206 8.61577 16.0504 8.45384 15.8352 8.33665C15.62 8.21733 15.3345 8.15767 14.9787 8.15767H13.5852L13.5852 14H12.7926ZM20.3808 14.1023C19.9376 14.1023 19.5488 13.9968 19.2143 13.7859C18.8819 13.5749 18.6219 13.2798 18.4344 12.9006C18.2491 12.5213 18.1564 12.0781 18.1564 11.571C18.1564 11.0597 18.2491 10.6133 18.4344 10.2319C18.6219 9.8505 18.8819 9.55433 19.2143 9.34339C19.5488 9.13246 19.9376 9.02699 20.3808 9.02699C20.824 9.02699 21.2118 9.13246 21.5442 9.34339C21.8787 9.55433 22.1386 9.8505 22.324 10.2319C22.5115 10.6133 22.6052 11.0597 22.6052 11.571C22.6052 12.0781 22.5115 12.5213 22.324 12.9006C22.1386 13.2798 21.8787 13.5749 21.5442 13.7859C21.2118 13.9968 20.824 14.1023 20.3808 14.1023ZM20.3808 13.4247C20.7175 13.4247 20.9945 13.3384 21.2118 13.1658C21.4291 12.9933 21.59 12.7663 21.6944 12.4851C21.7988 12.2038 21.851 11.8991 21.851 11.571C21.851 11.2429 21.7988 10.9371 21.6944 10.6538C21.59 10.3704 21.4291 10.1413 21.2118 9.96662C20.9945 9.7919 20.7175 9.70455 20.3808 9.70455C20.0442 9.70455 19.7672 9.7919 19.5498 9.96662C19.3325 10.1413 19.1717 10.3704 19.0672 10.6538C18.9628 10.9371 18.9106 11.2429 18.9106 11.571C18.9106 11.8991 18.9628 12.2038 19.0672 12.4851C19.1717 12.7663 19.3325 12.9933 19.5498 13.1658C19.7672 13.3384 20.0442 13.4247 20.3808 13.4247ZM24.7378 14L23.2421 9.09091H24.0347L25.0958 12.8494H25.1469L26.1952 9.09091H27.0006L28.0361 12.8366H28.0873L29.1483 9.09091H29.941L28.4452 14H27.7037L26.6299 10.2287H26.5532L25.4793 14H24.7378ZM32.8654 14.1023C32.3924 14.1023 31.9843 13.9979 31.6413 13.7891C31.3004 13.5781 31.0372 13.2841 30.8519 12.907C30.6686 12.5277 30.577 12.0866 30.577 11.5838C30.577 11.081 30.6686 10.6378 30.8519 10.2543C31.0372 9.86861 31.2951 9.56818 31.6253 9.35298C31.9577 9.13565 32.3455 9.02699 32.7887 9.02699C33.0443 9.02699 33.2968 9.0696 33.5461 9.15483C33.7954 9.24006 34.0223 9.37855 34.2269 9.57031C34.4314 9.75994 34.5944 10.0114 34.7159 10.3246C34.8373 10.6378 34.898 11.0234 34.898 11.4815V11.8011H31.1139V11.1491H34.131C34.131 10.8722 34.0756 10.625 33.9648 10.4077C33.8561 10.1903 33.7006 10.0188 33.4982 9.89311C33.2979 9.7674 33.0614 9.70455 32.7887 9.70455C32.4882 9.70455 32.2283 9.77912 32.0088 9.92827C31.7915 10.0753 31.6242 10.267 31.5071 10.5036C31.3899 10.7401 31.3313 10.9936 31.3313 11.2642V11.6989C31.3313 12.0696 31.3952 12.3839 31.523 12.6417C31.653 12.8974 31.8331 13.0923 32.0632 13.2266C32.2933 13.3587 32.5607 13.4247 32.8654 13.4247C33.0635 13.4247 33.2425 13.397 33.4023 13.3416C33.5642 13.2841 33.7038 13.1989 33.821 13.0859C33.9382 12.9709 34.0287 12.8281 34.0926 12.6577L34.8213 12.8622C34.7446 13.1094 34.6157 13.3267 34.4346 13.5142C34.2535 13.6996 34.0298 13.8445 33.7635 13.9489C33.4971 14.0511 33.1978 14.1023 32.8654 14.1023ZM36.0814 14V9.09091H36.8101V9.83239H36.8612C36.9507 9.58949 37.1127 9.3924 37.347 9.24112C37.5814 9.08984 37.8456 9.0142 38.1396 9.0142C38.195 9.0142 38.2643 9.01527 38.3474 9.0174C38.4305 9.01953 38.4933 9.02273 38.536 9.02699V9.79403C38.5104 9.78764 38.4518 9.77805 38.3602 9.76527C38.2707 9.75035 38.1759 9.7429 38.0757 9.7429C37.8371 9.7429 37.624 9.79297 37.4365 9.89311C37.2512 9.99112 37.1041 10.1275 36.9955 10.3022C36.8889 10.4748 36.8357 10.6719 36.8357 10.8935V14H36.0814ZM41.3749 14.1023C40.9019 14.1023 40.4938 13.9979 40.1508 13.7891C39.8099 13.5781 39.5467 13.2841 39.3614 12.907C39.1781 12.5277 39.0865 12.0866 39.0865 11.5838C39.0865 11.081 39.1781 10.6378 39.3614 10.2543C39.5467 9.86861 39.8046 9.56818 40.1348 9.35298C40.4672 9.13565 40.855 9.02699 41.2982 9.02699C41.5538 9.02699 41.8063 9.0696 42.0556 9.15483C42.3049 9.24006 42.5318 9.37855 42.7364 9.57031C42.9409 9.75994 43.1039 10.0114 43.2254 10.3246C43.3468 10.6378 43.4075 11.0234 43.4075 11.4815V11.8011L39.6234 11.8011V11.1491L42.6405 11.1491C42.6405 10.8722 42.5851 10.625 42.4743 10.4077C42.3656 10.1903 42.2101 10.0188 42.0077 9.89311C41.8074 9.7674 41.5709 9.70455 41.2982 9.70455C40.9977 9.70455 40.7378 9.77912 40.5183 9.92827C40.301 10.0753 40.1337 10.267 40.0166 10.5036C39.8994 10.7401 39.8408 10.9936 39.8408 11.2642V11.6989C39.8408 12.0696 39.9047 12.3839 40.0325 12.6417C40.1625 12.8974 40.3426 13.0923 40.5727 13.2266C40.8028 13.3587 41.0702 13.4247 41.3749 13.4247C41.573 13.4247 41.752 13.397 41.9118 13.3416C42.0737 13.2841 42.2133 13.1989 42.3305 13.0859C42.4477 12.9709 42.5382 12.8281 42.6021 12.6577L43.3308 12.8622C43.2541 13.1094 43.1252 13.3267 42.9441 13.5142C42.763 13.6996 42.5393 13.8445 42.273 13.9489C42.0066 14.0511 41.7073 14.1023 41.3749 14.1023ZM46.4446 14.1023C46.0355 14.1023 45.6744 13.9989 45.3612 13.7923C45.0479 13.5835 44.8029 13.2894 44.6261 12.9102C44.4492 12.5288 44.3608 12.0781 44.3608 11.5582C44.3608 11.0426 44.4492 10.5952 44.6261 10.2159C44.8029 9.83665 45.049 9.54368 45.3643 9.337C45.6797 9.13033 46.044 9.02699 46.4574 9.02699C46.777 9.02699 47.0295 9.08026 47.2148 9.18679C47.4023 9.29119 47.5451 9.41051 47.6431 9.54474C47.7433 9.67685 47.821 9.78551 47.8764 9.87074L47.9403 9.87074V7.45455H48.6946V14H47.9659V13.2457H47.8764C47.821 13.3352 47.7422 13.4482 47.6399 13.5845C47.5376 13.7187 47.3917 13.8391 47.2021 13.9457C47.0124 14.0501 46.7599 14.1023 46.4446 14.1023ZM46.5469 13.4247C46.8494 13.4247 47.1051 13.3459 47.3139 13.1882C47.5227 13.0284 47.6815 12.8079 47.7901 12.5266C47.8988 12.2433 47.9531 11.9162 47.9531 11.5455C47.9531 11.179 47.8999 10.8583 47.7933 10.5835C47.6868 10.3065 47.5291 10.0913 47.3203 9.93786C47.1115 9.78232 46.8537 9.70455 46.5469 9.70455C46.2273 9.70455 45.9609 9.78658 45.7479 9.95064C45.5369 10.1126 45.3782 10.3331 45.2717 10.6122C45.1673 10.8892 45.1151 11.2003 45.1151 11.5455C45.1151 11.8949 45.1683 12.2124 45.2749 12.4979C45.3835 12.7812 45.5433 13.0071 45.7543 13.1754C45.9673 13.3416 46.2315 13.4247 46.5469 13.4247ZM52.8863 14V7.45455H53.6405V9.87074H53.7045C53.7599 9.78551 53.8366 9.67685 53.9346 9.54474C54.0347 9.41051 54.1775 9.29119 54.3628 9.18679C54.5503 9.08026 54.8039 9.02699 55.1235 9.02699C55.5368 9.02699 55.9012 9.13033 56.2165 9.337C56.5319 9.54368 56.778 9.83665 56.9548 10.2159C57.1317 10.5952 57.2201 11.0426 57.2201 11.5582C57.2201 12.0781 57.1317 12.5288 56.9548 12.9102C56.778 13.2894 56.5329 13.5835 56.2197 13.7923C55.9065 13.9989 55.5454 14.1023 55.1363 14.1023C54.8209 14.1023 54.5684 14.0501 54.3788 13.9457C54.1892 13.8391 54.0432 13.7187 53.941 13.5845C53.8387 13.4482 53.7599 13.3352 53.7045 13.2457H53.615V14H52.8863ZM53.6278 11.5455C53.6278 11.9162 53.6821 12.2433 53.7908 12.5266C53.8994 12.8079 54.0582 13.0284 54.267 13.1882C54.4758 13.3459 54.7314 13.4247 55.034 13.4247C55.3493 13.4247 55.6125 13.3416 55.8234 13.1754C56.0365 13.0071 56.1963 12.7812 56.3028 12.4979C56.4115 12.2124 56.4658 11.8949 56.4658 11.5455C56.4658 11.2003 56.4126 10.8892 56.306 10.6122C56.2016 10.3331 56.0429 10.1126 55.8298 9.95064C55.6189 9.78658 55.3536 9.70455 55.034 9.70455C54.7272 9.70455 54.4694 9.78232 54.2606 9.93786C54.0518 10.0913 53.8941 10.3065 53.7876 10.5835C53.681 10.8583 53.6278 11.179 53.6278 11.5455ZM58.7199 15.8409C58.592 15.8409 58.478 15.8303 58.3779 15.8089C58.2777 15.7898 58.2085 15.7706 58.1701 15.7514L58.3619 15.0866C58.5451 15.1335 58.7071 15.1506 58.8477 15.1378C58.9883 15.125 59.113 15.0621 59.2216 14.9492C59.3324 14.8384 59.4336 14.6584 59.5253 14.4091L59.6659 14.0256L57.8505 9.09091H58.6687L60.0238 13.0028H60.075L61.4301 9.09091H62.2483L60.1645 14.7159C60.0707 14.9695 59.9546 15.1793 59.8161 15.3455C59.6776 15.5138 59.5167 15.6385 59.3335 15.7195C59.1524 15.8004 58.9478 15.8409 58.7199 15.8409Z" fill="#666666"/>
<path d="M89.2186 8.62988C88.5591 8.62988 88.0509 8.96509 87.7482 9.53822C87.532 8.9328 86.9959 8.62988 86.293 8.62988C85.7199 8.62988 85.2768 8.9003 84.9847 9.38676V8.76426H83.7891V14.0251H84.9847V11.0951C84.9847 10.1761 85.3524 9.7003 85.947 9.7003C86.4984 9.7003 86.747 10.042 86.747 10.7338V14.0251H87.9211L87.8886 10.922C87.8886 10.0355 88.2886 9.70009 88.8509 9.70009C89.3807 9.70009 89.6295 10.0418 89.6295 10.7336V14.0249H90.8359L90.8143 10.4028C90.8143 9.22467 90.2132 8.62988 89.2186 8.62988Z" fill="#1A1A1A"/>
<path d="M93.8565 8.64453C92.6704 8.64453 91.6679 9.36682 91.7325 10.6714L92.8429 10.7577C92.789 10.0785 93.1665 9.64703 93.8888 9.64703C94.5356 9.64703 94.9129 9.99203 94.9129 10.4558V10.6497L93.7054 10.8545C92.3794 11.0702 91.7217 11.6308 91.7217 12.6335C91.7217 13.4097 92.3146 14.186 93.5006 14.186C94.1583 14.186 94.665 13.8627 94.9129 13.4206V14.0243H96.0233V10.5204C96.0236 9.36682 95.2471 8.64453 93.8565 8.64453ZM94.9129 11.8249C94.9129 12.6012 94.4277 13.1187 93.7269 13.1187C93.1988 13.1187 92.8427 12.8708 92.8427 12.4933C92.8427 12.062 93.2308 11.8679 93.8777 11.7493L94.9127 11.5768V11.8249H94.9129Z" fill="#1A1A1A"/>
<path d="M97.0674 6.88184V14.0241H98.2532V6.88184H97.0674Z" fill="#1A1A1A"/>
<path d="M106.833 8.64453C105.647 8.64453 104.644 9.36682 104.709 10.6714L105.819 10.7577C105.766 10.0785 106.143 9.64703 106.865 9.64703C107.512 9.64703 107.889 9.99203 107.889 10.4558V10.6497L106.682 10.8545C105.356 11.0702 104.698 11.6308 104.698 12.6335C104.698 13.4097 105.291 14.186 106.477 14.186C107.135 14.186 107.642 13.8627 107.89 13.4206V14.0243H109V10.5204C109 9.36682 108.224 8.64453 106.833 8.64453ZM107.89 11.8249C107.89 12.6012 107.404 13.1187 106.704 13.1187C106.175 13.1187 105.819 12.8708 105.819 12.4933C105.819 12.062 106.208 11.8679 106.854 11.7493L107.889 11.5768V11.8249H107.89Z" fill="#1A1A1A"/>
<path d="M102.461 13.5102H100.596C100.274 13.5102 100.079 13.3356 100.079 13.1262C100.079 12.8818 100.263 12.7306 100.562 12.7306H101.691C102.806 12.7306 103.724 11.8464 103.724 10.7412C103.724 10.3108 103.598 9.96161 103.334 9.63599L104.319 9.68391L104.322 8.76328H103.093C102.633 8.76328 102.323 8.70828 101.996 8.68286C101.836 8.65766 101.667 8.64453 101.491 8.64453C100.045 8.64453 99.2557 9.44682 99.2557 10.6945C99.2557 11.2762 99.5084 11.7533 99.9336 12.1489C99.3707 12.242 98.9801 12.7074 98.9801 13.161C98.9801 13.4983 99.1295 13.8241 99.4511 14.0218C98.9801 14.3477 98.7734 14.7897 98.7734 15.3481C98.7734 16.3137 99.5201 17.0002 100.91 17.0002H102.185C103.426 17.0002 104.345 16.2904 104.345 15.1852C104.345 14.1966 103.61 13.5102 102.461 13.5102ZM101.484 9.59786C102.27 9.59786 102.541 10.1214 102.541 10.7062C102.541 11.291 102.243 11.8145 101.484 11.8145C100.726 11.8145 100.428 11.291 100.428 10.7062C100.428 10.1216 100.699 9.59786 101.484 9.59786ZM102.243 16.0231H100.922C100.301 16.0231 99.9909 15.6858 99.9909 15.2552C99.9909 14.9177 100.129 14.4756 100.864 14.4756H102.266C102.806 14.4756 103.139 14.7664 103.139 15.2085C103.139 15.7206 102.783 16.0231 102.243 16.0231Z" fill="#1A1A1A"/>
<path d="M78.3089 8.7627H74.4793C73.5318 8.7627 72.7637 9.53082 72.7637 10.4783V14.3081C72.7637 15.2556 73.5318 16.0237 74.4793 16.0237H78.3091C79.2566 16.0237 80.0247 15.2556 80.0247 14.3081V10.4783C80.0245 9.53082 79.2564 8.7627 78.3089 8.7627Z" fill="#39BFAD"/>
<path d="M70.8821 8.7627C69.8427 8.7627 69 9.6054 69 10.645V14.1417C69 15.181 69.8427 16.0237 70.8821 16.0237C71.9215 16.0237 72.7642 15.181 72.7642 14.1417V10.645C72.7642 9.6054 71.9217 8.7627 70.8821 8.7627Z" fill="#E26BA7"/>
<path d="M74.3787 5H70.8821C69.8427 5 69 5.84271 69 6.88208C69 7.92146 69.8427 8.76417 70.8821 8.76417H74.3787C75.4181 8.76417 76.2608 7.92146 76.2608 6.88208C76.2608 5.84271 75.4181 5 74.3787 5Z" fill="#39BFAD"/>
<path d="M78.2416 5.00249C77.1254 4.94583 76.2085 5.8627 76.2652 6.97895C76.3135 7.93478 77.0902 8.71124 78.0458 8.75978C79.1621 8.81624 80.0789 7.89937 80.0223 6.78333C79.9739 5.82749 79.1973 5.05083 78.2416 5.00249Z" fill="#E26BA7"/>
<rect x="0.5" y="0.5" width="120" height="21" rx="9.5" stroke="#CBCBCB"/>
</svg>
