<svg width="16" height="16" viewBox="0 0 16 16" fill="none" xmlns="http://www.w3.org/2000/svg">
<path d="M10.4733 8.47335C11.1269 7.95912 11.604 7.25396 11.8382 6.45597C12.0723 5.65799 12.0519 4.80686 11.7799 4.02099C11.5078 3.23513 10.9975 2.55361 10.32 2.07125C9.64259 1.58889 8.83163 1.32968 8 1.32968C7.16836 1.32968 6.35741 1.58889 5.67995 2.07125C5.0025 2.55361 4.49223 3.23513 4.22014 4.02099C3.94805 4.80686 3.92767 5.65799 4.16184 6.45597C4.396 7.25396 4.87307 7.95912 5.52666 8.47335C4.40672 8.92204 3.42952 9.66624 2.69926 10.6266C1.969 11.587 1.51304 12.7275 1.38 13.9267C1.37037 14.0142 1.37808 14.1028 1.40268 14.1874C1.42729 14.272 1.46831 14.3508 1.52341 14.4196C1.63468 14.5583 1.79652 14.6472 1.97333 14.6667C2.15014 14.6861 2.32744 14.6345 2.46621 14.5233C2.60499 14.412 2.69388 14.2502 2.71333 14.0733C2.85972 12.7701 3.48112 11.5666 4.45881 10.6925C5.4365 9.81853 6.70193 9.33537 8.01333 9.33537C9.32473 9.33537 10.5902 9.81853 11.5679 10.6925C12.5455 11.5666 13.1669 12.7701 13.3133 14.0733C13.3315 14.2372 13.4096 14.3884 13.5327 14.498C13.6559 14.6076 13.8152 14.6677 13.98 14.6667H14.0533C14.2281 14.6466 14.3878 14.5582 14.4977 14.4208C14.6076 14.2835 14.6587 14.1083 14.64 13.9333C14.5063 12.7308 14.0479 11.5873 13.3139 10.6255C12.5799 9.66363 11.5979 8.91966 10.4733 8.47335ZM8 8.00001C7.47258 8.00001 6.95701 7.84361 6.51848 7.5506C6.07995 7.25758 5.73815 6.8411 5.53632 6.35384C5.33449 5.86657 5.28168 5.33039 5.38457 4.8131C5.48746 4.29582 5.74144 3.82067 6.11438 3.44773C6.48732 3.07479 6.96247 2.82081 7.47976 2.71792C7.99704 2.61502 8.53322 2.66783 9.02049 2.86967C9.50776 3.0715 9.92423 3.41329 10.2173 3.85182C10.5103 4.29036 10.6667 4.80593 10.6667 5.33335C10.6667 6.04059 10.3857 6.71887 9.88562 7.21896C9.38552 7.71906 8.70724 8.00001 8 8.00001Z" fill="#8B90A7"/>
</svg>
