<svg width="26" height="16" viewBox="0 0 26 16" fill="none" xmlns="http://www.w3.org/2000/svg">
<path d="M24 0H2C0.89543 0 0 0.89543 0 2V14C0 15.1046 0.89543 16 2 16H24C25.1046 16 26 15.1046 26 14V2C26 0.89543 25.1046 0 24 0Z" fill="#224DBA"/>
<path d="M7.91005 10.8801H6.40005L5.26005 6.35009C5.24038 6.25192 5.20099 6.15876 5.14426 6.07625C5.08754 5.99375 5.01467 5.92361 4.93005 5.87009C4.49858 5.63962 4.03249 5.48088 3.55005 5.40009V5.22009H6.00005C6.15598 5.22371 6.30541 5.28327 6.42106 5.38791C6.53672 5.49256 6.61089 5.6353 6.63005 5.79009L7.20005 9.05009L8.71005 5.22009H10.18L7.91005 10.8801ZM11.02 10.8801H9.59005L10.76 5.22009H12.19L11.02 10.8801ZM14.02 6.79009C14.0376 6.64948 14.1088 6.52109 14.2187 6.43166C14.3286 6.34224 14.4688 6.29869 14.61 6.31009C15.0884 6.26874 15.569 6.35863 16 6.57009L16.25 5.35009C15.8533 5.18595 15.4293 5.09776 15 5.09009C13.62 5.09009 12.61 5.87009 12.61 6.96009C12.6487 7.30149 12.7827 7.62511 12.9967 7.89392C13.2107 8.16273 13.496 8.36586 13.82 8.48009C14.37 8.74009 14.58 8.92009 14.54 9.18009C14.5037 9.36678 14.395 9.53151 14.2376 9.63831C14.0802 9.74511 13.887 9.78529 13.7 9.75009C13.1908 9.74794 12.6885 9.63176 12.23 9.41009L11.98 10.6201C12.4705 10.8271 12.9977 10.9325 13.53 10.9301C15 11.0001 16 10.1801 16 9.00009C16 7.52009 14 7.43009 14 6.78009L14.02 6.79009ZM21.0201 10.8801L19.8701 5.22009H18.66C18.528 5.22233 18.4 5.26602 18.2941 5.34497C18.1882 5.42393 18.1099 5.53416 18.07 5.66009L16 10.8801H17.47L17.76 10.0501H19.57L19.73 10.8801H21.0201ZM18.87 6.74009L19.29 8.87009H18.11L18.87 6.74009Z" fill="white"/>
</svg>
