<svg width="16" height="16" viewBox="0 0 16 16" fill="none" xmlns="http://www.w3.org/2000/svg">
<path d="M4.66634 10.0002H6.66634C6.84315 10.0002 7.01272 9.92992 7.13775 9.8049C7.26277 9.67988 7.33301 9.51031 7.33301 9.3335C7.33301 9.15669 7.26277 8.98712 7.13775 8.86209C7.01272 8.73707 6.84315 8.66683 6.66634 8.66683H4.66634C4.48953 8.66683 4.31996 8.73707 4.19494 8.86209C4.06991 8.98712 3.99967 9.15669 3.99967 9.3335C3.99967 9.51031 4.06991 9.67988 4.19494 9.8049C4.31996 9.92992 4.48953 10.0002 4.66634 10.0002ZM12.6663 3.3335H3.33301C2.80257 3.3335 2.29387 3.54421 1.91879 3.91928C1.54372 4.29436 1.33301 4.80306 1.33301 5.3335V11.3335C1.33301 11.8639 1.54372 12.3726 1.91879 12.7477C2.29387 13.1228 2.80257 13.3335 3.33301 13.3335H12.6663C13.1968 13.3335 13.7055 13.1228 14.0806 12.7477C14.4556 12.3726 14.6663 11.8639 14.6663 11.3335V5.3335C14.6663 4.80306 14.4556 4.29436 14.0806 3.91928C13.7055 3.54421 13.1968 3.3335 12.6663 3.3335ZM13.333 11.3335C13.333 11.5103 13.2628 11.6799 13.1377 11.8049C13.0127 11.9299 12.8432 12.0002 12.6663 12.0002H3.33301C3.1562 12.0002 2.98663 11.9299 2.8616 11.8049C2.73658 11.6799 2.66634 11.5103 2.66634 11.3335V7.3335H13.333V11.3335ZM13.333 6.00016H2.66634V5.3335C2.66634 5.15669 2.73658 4.98712 2.8616 4.86209C2.98663 4.73707 3.1562 4.66683 3.33301 4.66683H12.6663C12.8432 4.66683 13.0127 4.73707 13.1377 4.86209C13.2628 4.98712 13.333 5.15669 13.333 5.3335V6.00016Z" fill="#8B90A7"/>
</svg>
