<svg width="120" height="37" viewBox="0 0 120 37" fill="none" xmlns="http://www.w3.org/2000/svg">
<path d="M60.6564 11.8867C58.6777 11.8867 57.1533 12.8923 56.2452 14.6117C55.5964 12.7955 53.9883 11.8867 51.8795 11.8867C50.1602 11.8867 48.8308 12.698 47.9546 14.1573V12.2898H44.3677V28.0723H47.9546V19.2823C47.9546 16.5255 49.0577 15.098 50.8414 15.098C52.4958 15.098 53.2414 16.123 53.2414 18.1986V28.0723H56.7639L56.6664 18.763C56.6664 16.1036 57.8664 15.0973 59.5533 15.0973C61.1427 15.0973 61.8889 16.1223 61.8889 18.198V28.0717H65.5083L65.4433 17.2055C65.4433 13.6711 63.6402 11.8867 60.6564 11.8867Z" fill="#1A1A1A"/>
<path d="M74.5689 11.9336C71.0108 11.9336 68.0033 14.1005 68.1971 18.0142L71.5283 18.273C71.3664 16.2355 72.4989 14.9411 74.6658 14.9411C76.6064 14.9411 77.7383 15.9761 77.7383 17.3673V17.9492L74.1158 18.5636C70.1377 19.2105 68.1646 20.8923 68.1646 23.9005C68.1646 26.2292 69.9433 28.558 73.5014 28.558C75.4745 28.558 76.9946 27.588 77.7383 26.2617V28.073H81.0695V17.5611C81.0702 14.1005 78.7408 11.9336 74.5689 11.9336ZM77.7383 21.4748C77.7383 23.8036 76.2827 25.3561 74.1802 25.3561C72.5958 25.3561 71.5277 24.6123 71.5277 23.4798C71.5277 22.1861 72.692 21.6036 74.6327 21.248L77.7377 20.7305V21.4748H77.7383Z" fill="#1A1A1A"/>
<path d="M84.2012 6.64551V28.0724H87.7587V6.64551H84.2012Z" fill="#1A1A1A"/>
<path d="M113.499 11.9336C109.94 11.9336 106.933 14.1005 107.127 18.0142L110.458 18.273C110.296 16.2355 111.428 14.9411 113.595 14.9411C115.536 14.9411 116.668 15.9761 116.668 17.3673V17.9492L113.045 18.5636C109.067 19.2105 107.094 20.8923 107.094 23.9005C107.094 26.2292 108.873 28.558 112.431 28.558C114.404 28.558 115.924 27.588 116.669 26.2617V28.073H120V17.5611C120 14.1005 117.671 11.9336 113.499 11.9336ZM116.669 21.4748C116.669 23.8036 115.213 25.3561 113.11 25.3561C111.525 25.3561 110.458 24.6123 110.458 23.4798C110.458 22.1861 111.622 21.6036 113.563 21.248L116.668 20.7305V21.4748H116.669Z" fill="#1A1A1A"/>
<path d="M100.382 26.5305H94.7879C93.8229 26.5305 93.2373 26.0067 93.2373 25.3786C93.2373 24.6455 93.7886 24.1917 94.6848 24.1917H98.073C101.416 24.1917 104.173 21.5392 104.173 18.2236C104.173 16.9323 103.794 15.8848 103.001 14.908L105.958 15.0517L105.965 12.2898H102.278C100.9 12.2898 99.9692 12.1248 98.9861 12.0486C98.5061 11.973 97.9998 11.9336 97.4717 11.9336C93.1355 11.9336 90.7667 14.3405 90.7667 18.0836C90.7667 19.8286 91.5248 21.2598 92.8005 22.4467C91.1117 22.7261 89.9398 24.1223 89.9398 25.483C89.9398 26.4948 90.388 27.4723 91.353 28.0655C89.9398 29.043 89.3198 30.3692 89.3198 32.0442C89.3198 34.9411 91.5598 37.0005 95.7298 37.0005H99.5554C103.278 37.0005 106.035 34.8711 106.035 31.5555C106.034 28.5898 103.829 26.5305 100.382 26.5305ZM97.4529 14.7936C99.8104 14.7936 100.624 16.3642 100.624 18.1186C100.624 19.873 99.7298 21.4436 97.4529 21.4436C95.1761 21.4436 94.2823 19.873 94.2823 18.1186C94.2823 16.3648 95.0954 14.7936 97.4529 14.7936ZM99.7273 34.0692H95.7642C93.9036 34.0692 92.9723 33.0573 92.9723 31.7655C92.9723 30.753 93.3861 29.4267 95.5917 29.4267H99.7961C101.416 29.4267 102.415 30.2992 102.415 31.6255C102.415 33.1617 101.347 34.0692 99.7273 34.0692Z" fill="#1A1A1A"/>
<path d="M21.7861 28.9257L21.7861 17.4369C21.7861 14.5944 19.4818 12.29 16.6393 12.29L5.14989 12.29C2.30739 12.29 0.00301351 14.5944 0.00301339 17.4369L0.00301288 28.9263C0.00301276 31.7688 2.30739 34.0732 5.14989 34.0732L16.6393 34.0732C19.4818 34.0725 21.7861 31.7682 21.7861 28.9257Z" fill="#39BFAD"/>
<path d="M21.7861 6.64332C21.7861 3.52519 19.258 0.99707 16.1393 0.99707L5.64926 0.99707C2.53114 0.997069 0.0030135 3.52519 0.00301336 6.64332C0.00301323 9.76144 2.53114 12.2896 5.64926 12.2896L16.1393 12.2896C19.258 12.2896 21.7861 9.76207 21.7861 6.64332Z" fill="#E26BA7"/>
<path d="M33.0732 17.1333L33.0732 6.64332C33.0732 3.52519 30.5451 0.99707 27.427 0.99707C24.3089 0.99707 21.7807 3.52519 21.7807 6.64332L21.7807 17.1333C21.7807 20.2514 24.3089 22.7796 27.427 22.7796C30.5451 22.7796 33.0732 20.2514 33.0732 17.1333Z" fill="#39BFAD"/>
<path d="M33.0658 28.723C33.2358 25.3742 30.4851 22.6236 27.1364 22.7936C24.2689 22.9386 21.9395 25.2686 21.7939 28.1355C21.6245 31.4842 24.3751 34.2349 27.7233 34.0649C30.5908 33.9199 32.9208 31.5899 33.0658 28.723Z" fill="#E26BA7"/>
</svg>
