<svg width="131" height="67" viewBox="0 0 131 67" fill="none" xmlns="http://www.w3.org/2000/svg">
<path d="M22.961 25.2153C18.0435 25.2153 14.0872 21.2043 14.0872 16.2186C14.0872 11.2329 18.0435 7.22177 22.961 7.22177C27.8787 7.22177 31.8349 11.2329 31.8349 16.2186C31.8349 21.1668 27.8787 25.2153 22.961 25.2153ZM22.9241 0.549133C18.8939 0.549133 15.1964 2.12358 12.4604 4.71016C11.4991 5.64733 10.131 5.87225 8.57804 5.94722H2.77307C1.22016 5.94722 0 7.4092 0 9.17108C0 10.9704 1.22016 12.3949 2.77307 12.3949H4.43692C6.10077 12.4699 7.43184 13.8569 7.43184 15.5813V18.7676V39.048V41.9719V47.7449C7.43184 49.5442 9.24358 50.9687 10.9444 50.9687C12.6082 50.9687 14.4569 49.5068 14.4569 47.7449V41.9719V32.1504C14.4569 30.9883 14.8637 29.7138 16.7124 30.4635C16.7493 30.501 16.8233 30.501 16.8602 30.5385C16.8602 30.5385 16.8973 30.5385 16.8973 30.576C18.746 31.3632 20.7795 31.8131 22.9241 31.8131C31.4282 31.8131 38.3424 24.803 38.3424 16.1811C38.3424 7.55914 31.4282 0.549133 22.9241 0.549133Z" fill="#F04E98"/>
<path d="M48.1035 12.3949H42.8901C41.1523 12.3949 39.7473 10.9704 39.7473 9.20852C39.7473 7.44665 41.1523 6.02216 42.8901 6.02216H55.0916C56.8294 6.02216 58.2344 7.44665 58.2344 9.20852V34.1747C58.2344 40.9972 61.1185 44.446 67.0343 44.446C71.6191 44.446 74.651 41.9719 76.0931 37.0237C76.5737 35.4492 78.1266 34.4745 79.7165 34.7745L79.9014 34.8119C81.7131 35.1868 82.8223 36.9861 82.3417 38.7856C80.1972 46.6952 74.688 50.8188 67.0343 50.8188C57.3471 50.8188 51.2833 44.6709 51.2833 34.1747V18.8051V15.6187C51.2463 13.8194 49.8413 12.3949 48.1035 12.3949Z" fill="#F04E98"/>
<path d="M110.738 60.3405C102.567 60.4154 97.3165 56.9666 97.2426 51.9809C97.2056 49.5068 98.3518 48.4571 99.8307 47.2576C102.9 44.821 117.505 44.6709 121.35 46.4328C123.605 47.4825 123.938 49.0195 123.975 51.4935C124.049 56.6667 118.577 60.2655 110.738 60.3405ZM116.063 26.5274C114.435 28.0269 112.476 28.8516 110.147 28.8516C107.817 28.889 105.821 28.2143 104.268 26.7148C102.604 25.2529 101.827 23.1536 101.79 20.4546C101.753 17.7555 102.53 15.7312 104.157 14.2317C105.71 12.7323 107.669 11.9076 109.999 11.9076C112.328 11.8702 114.325 12.6573 115.951 14.1193C117.505 15.5813 118.318 17.6806 118.355 20.3046C118.391 22.9287 117.578 24.9904 116.063 26.5274ZM129.115 38.8981C129.595 36.0116 129.262 32.6752 126.045 30.576C125.49 30.2386 123.827 29.3015 123.938 27.9519C123.975 27.5396 124.197 26.6774 124.344 26.415C125.047 24.5781 125.417 22.5163 125.38 20.2297C125.38 20.1546 125.38 20.1172 125.38 20.0422C125.38 20.0047 125.38 20.0047 125.38 19.9673C125.38 19.8922 125.38 19.8173 125.38 19.7423C125.343 18.8427 125.232 17.943 125.01 17.0808C124.456 14.9066 125.047 14.5692 125.454 14.3068L129.373 12.4699C130.853 11.7577 131.407 9.80833 130.63 8.04645C129.817 6.32207 128.006 5.45988 126.489 6.17212L121.571 8.49629C120.648 8.94614 119.649 8.72122 118.577 8.08394C118.428 7.97149 118.281 7.89651 118.097 7.78405C115.767 6.39704 112.994 5.57233 110.036 5.57233C101.569 5.57233 94.6913 12.2075 94.6913 20.3796C94.6913 28.5517 101.569 35.1868 110.036 35.1868C110.479 35.1868 110.96 35.1494 111.404 35.1119H111.441C111.515 35.1119 111.588 35.1119 111.625 35.1119C111.848 35.0743 112.032 35.0743 112.254 35.0369C113.216 34.887 114.139 34.6995 115.027 34.3996C115.989 34.1372 116.802 33.8748 117.541 33.8748C119.686 33.8374 122.607 35.1868 122.349 37.8859C122.2 39.4229 120.684 39.2354 117.394 39.1979H104.822C95.5047 39.3104 90.2914 43.5463 90.3653 51.4935C90.4023 56.6667 92.4358 60.3779 96.4291 62.8896C100.422 65.4012 105.266 66.5632 110.849 66.4882C123.531 66.3757 130.52 61.2026 130.778 51.7935C130.853 49.5817 130.778 48.4947 129.965 46.8827C128.337 43.6588 128.708 41.2222 129.115 38.8981Z" fill="#F04E98"/>
<path d="M91.2527 5.94717L91.0309 5.90969C90.8091 5.8722 90.6241 5.83472 90.4023 5.83472C88.9973 5.83472 87.7031 6.80937 87.2595 8.23387C86.52 10.708 85.3738 12.5823 83.8579 13.8194C82.3419 15.0565 80.4192 15.6938 78.1268 15.6938C75.8344 15.6938 73.9118 15.0565 72.3958 13.8194C70.8798 12.5823 69.7337 10.708 68.9942 8.23387C68.5505 6.80937 67.2934 5.83472 65.8514 5.83472C65.6296 5.83472 65.4446 5.8722 65.2228 5.90969L65.001 5.94717C63.4481 6.24706 62.3757 7.67156 62.3757 9.20852C62.3757 9.50841 62.4127 9.80831 62.4866 10.1082C63.5959 14.1193 65.5185 17.1932 68.1808 19.255C70.8429 21.3167 74.1705 22.3664 78.0898 22.3664C82.0091 22.3664 85.3369 21.3167 87.999 19.255C90.6611 17.1932 92.5838 14.1193 93.693 10.1082C93.7669 9.80831 93.8039 9.50841 93.8039 9.20852C93.8778 7.67156 92.8056 6.28455 91.2527 5.94717Z" fill="#F04E98"/>
</svg>